<mxfile host="app.diagrams.net" agent="Mozilla/5.0 (Windows NT 10.0; Win64; x64) AppleWebKit/537.36 (KHTML, like Gecko) Chrome/127.0.0.0 Safari/537.36" version="24.7.9" pages="7">
  <diagram name="Página-1" id="mab60y0g9BIxzLfjdxpM">
    <mxGraphModel dx="1434" dy="772" grid="1" gridSize="10" guides="1" tooltips="1" connect="1" arrows="1" fold="1" page="1" pageScale="1" pageWidth="827" pageHeight="1169" math="0" shadow="0">
      <root>
        <mxCell id="0" />
        <mxCell id="1" parent="0" />
        <mxCell id="9ZjnTT0w3MI4GpvlhG_B-3" style="edgeStyle=orthogonalEdgeStyle;rounded=0;orthogonalLoop=1;jettySize=auto;html=1;exitX=1;exitY=0.5;exitDx=0;exitDy=0;" parent="1" source="9ZjnTT0w3MI4GpvlhG_B-1" target="9ZjnTT0w3MI4GpvlhG_B-2" edge="1">
          <mxGeometry relative="1" as="geometry" />
        </mxCell>
        <mxCell id="9ZjnTT0w3MI4GpvlhG_B-1" value="Inicio" style="ellipse;whiteSpace=wrap;html=1;" parent="1" vertex="1">
          <mxGeometry x="21.25" y="5" width="110" height="70" as="geometry" />
        </mxCell>
        <mxCell id="RPzRg4d4vbEzAeHYb3Nj-3" style="edgeStyle=orthogonalEdgeStyle;rounded=0;orthogonalLoop=1;jettySize=auto;html=1;entryX=0.5;entryY=0;entryDx=0;entryDy=0;" parent="1" source="9ZjnTT0w3MI4GpvlhG_B-2" target="RPzRg4d4vbEzAeHYb3Nj-1" edge="1">
          <mxGeometry relative="1" as="geometry" />
        </mxCell>
        <mxCell id="9ZjnTT0w3MI4GpvlhG_B-2" value="Lista de clientes" style="rounded=0;whiteSpace=wrap;html=1;" parent="1" vertex="1">
          <mxGeometry x="200" y="10" width="120" height="60" as="geometry" />
        </mxCell>
        <mxCell id="9ZjnTT0w3MI4GpvlhG_B-7" style="edgeStyle=orthogonalEdgeStyle;rounded=0;orthogonalLoop=1;jettySize=auto;html=1;exitX=1;exitY=0.5;exitDx=0;exitDy=0;entryX=0;entryY=0.5;entryDx=0;entryDy=0;" parent="1" source="9ZjnTT0w3MI4GpvlhG_B-4" target="9ZjnTT0w3MI4GpvlhG_B-6" edge="1">
          <mxGeometry relative="1" as="geometry" />
        </mxCell>
        <mxCell id="9ZjnTT0w3MI4GpvlhG_B-4" value="Dados do cliente; Nome, telefone e email ." style="rounded=0;whiteSpace=wrap;html=1;" parent="1" vertex="1">
          <mxGeometry x="414" y="200" width="120" height="60" as="geometry" />
        </mxCell>
        <mxCell id="oj0tM93XCMbd65IzXa3I-1" value="Sim" style="edgeStyle=orthogonalEdgeStyle;rounded=0;orthogonalLoop=1;jettySize=auto;html=1;exitX=0.5;exitY=0;exitDx=0;exitDy=0;entryX=1;entryY=0.5;entryDx=0;entryDy=0;" parent="1" source="9ZjnTT0w3MI4GpvlhG_B-6" target="yef1o6NZn2H_A7KWvMYI-4" edge="1">
          <mxGeometry relative="1" as="geometry">
            <mxPoint x="650" y="120" as="targetPoint" />
          </mxGeometry>
        </mxCell>
        <mxCell id="oj0tM93XCMbd65IzXa3I-2" value="Não" style="edgeStyle=orthogonalEdgeStyle;rounded=0;orthogonalLoop=1;jettySize=auto;html=1;" parent="1" source="9ZjnTT0w3MI4GpvlhG_B-6" target="yef1o6NZn2H_A7KWvMYI-1" edge="1">
          <mxGeometry relative="1" as="geometry">
            <mxPoint x="700" y="280" as="targetPoint" />
            <Array as="points">
              <mxPoint x="590" y="270" />
              <mxPoint x="720" y="270" />
            </Array>
          </mxGeometry>
        </mxCell>
        <mxCell id="9ZjnTT0w3MI4GpvlhG_B-6" value="Dados validos?" style="rhombus;whiteSpace=wrap;html=1;" parent="1" vertex="1">
          <mxGeometry x="560" y="190" width="80" height="80" as="geometry" />
        </mxCell>
        <mxCell id="oj0tM93XCMbd65IzXa3I-42" style="edgeStyle=orthogonalEdgeStyle;rounded=0;orthogonalLoop=1;jettySize=auto;html=1;exitX=0;exitY=0.5;exitDx=0;exitDy=0;entryX=1;entryY=0.5;entryDx=0;entryDy=0;" parent="1" source="9ZjnTT0w3MI4GpvlhG_B-10" target="yef1o6NZn2H_A7KWvMYI-11" edge="1">
          <mxGeometry relative="1" as="geometry">
            <mxPoint x="112.5" y="210" as="targetPoint" />
          </mxGeometry>
        </mxCell>
        <mxCell id="9ZjnTT0w3MI4GpvlhG_B-10" value="Procurar clientes" style="rounded=0;whiteSpace=wrap;html=1;" parent="1" vertex="1">
          <mxGeometry x="140" y="200" width="110" height="60" as="geometry" />
        </mxCell>
        <mxCell id="9ZjnTT0w3MI4GpvlhG_B-34" style="edgeStyle=orthogonalEdgeStyle;rounded=0;orthogonalLoop=1;jettySize=auto;html=1;exitX=1;exitY=0.5;exitDx=0;exitDy=0;entryX=0;entryY=0.5;entryDx=0;entryDy=0;" parent="1" source="9ZjnTT0w3MI4GpvlhG_B-13" target="9ZjnTT0w3MI4GpvlhG_B-4" edge="1">
          <mxGeometry relative="1" as="geometry" />
        </mxCell>
        <mxCell id="9ZjnTT0w3MI4GpvlhG_B-13" value="Cadastrar clientes" style="rounded=0;whiteSpace=wrap;html=1;" parent="1" vertex="1">
          <mxGeometry x="270" y="200" width="120" height="60" as="geometry" />
        </mxCell>
        <mxCell id="yef1o6NZn2H_A7KWvMYI-29" value="Não" style="edgeStyle=orthogonalEdgeStyle;rounded=0;orthogonalLoop=1;jettySize=auto;html=1;exitX=0.5;exitY=1;exitDx=0;exitDy=0;entryX=0.5;entryY=0;entryDx=0;entryDy=0;" parent="1" source="9ZjnTT0w3MI4GpvlhG_B-32" target="yef1o6NZn2H_A7KWvMYI-6" edge="1">
          <mxGeometry relative="1" as="geometry" />
        </mxCell>
        <mxCell id="yef1o6NZn2H_A7KWvMYI-31" value="Sim" style="edgeStyle=orthogonalEdgeStyle;rounded=0;orthogonalLoop=1;jettySize=auto;html=1;exitX=1;exitY=0.5;exitDx=0;exitDy=0;entryX=0;entryY=0.5;entryDx=0;entryDy=0;" parent="1" source="9ZjnTT0w3MI4GpvlhG_B-32" target="yef1o6NZn2H_A7KWvMYI-8" edge="1">
          <mxGeometry relative="1" as="geometry">
            <mxPoint x="294" y="480" as="targetPoint" />
          </mxGeometry>
        </mxCell>
        <mxCell id="9ZjnTT0w3MI4GpvlhG_B-32" value="Dados validos?" style="rhombus;whiteSpace=wrap;html=1;" parent="1" vertex="1">
          <mxGeometry x="155" y="480" width="80" height="80" as="geometry" />
        </mxCell>
        <mxCell id="yef1o6NZn2H_A7KWvMYI-2" style="edgeStyle=orthogonalEdgeStyle;rounded=0;orthogonalLoop=1;jettySize=auto;html=1;exitX=1;exitY=0.5;exitDx=0;exitDy=0;entryX=0.5;entryY=1;entryDx=0;entryDy=0;" parent="1" source="yef1o6NZn2H_A7KWvMYI-1" target="9ZjnTT0w3MI4GpvlhG_B-13" edge="1">
          <mxGeometry relative="1" as="geometry">
            <Array as="points">
              <mxPoint x="800" y="210" />
              <mxPoint x="800" y="280" />
              <mxPoint x="330" y="280" />
            </Array>
          </mxGeometry>
        </mxCell>
        <mxCell id="yef1o6NZn2H_A7KWvMYI-1" value="Mostrar erro" style="rounded=0;whiteSpace=wrap;html=1;" parent="1" vertex="1">
          <mxGeometry x="660" y="180" width="120" height="60" as="geometry" />
        </mxCell>
        <mxCell id="yef1o6NZn2H_A7KWvMYI-5" style="edgeStyle=orthogonalEdgeStyle;rounded=0;orthogonalLoop=1;jettySize=auto;html=1;exitX=0;exitY=0.5;exitDx=0;exitDy=0;entryX=0.75;entryY=0;entryDx=0;entryDy=0;" parent="1" source="yef1o6NZn2H_A7KWvMYI-4" target="9ZjnTT0w3MI4GpvlhG_B-13" edge="1">
          <mxGeometry relative="1" as="geometry" />
        </mxCell>
        <mxCell id="yef1o6NZn2H_A7KWvMYI-4" value="Cadastro bem sucedido&amp;nbsp;" style="rounded=0;whiteSpace=wrap;html=1;" parent="1" vertex="1">
          <mxGeometry x="414" y="120" width="120" height="60" as="geometry" />
        </mxCell>
        <mxCell id="yef1o6NZn2H_A7KWvMYI-30" style="edgeStyle=orthogonalEdgeStyle;rounded=0;orthogonalLoop=1;jettySize=auto;html=1;exitX=0;exitY=0.25;exitDx=0;exitDy=0;entryX=0;entryY=1;entryDx=0;entryDy=0;" parent="1" source="yef1o6NZn2H_A7KWvMYI-6" target="yef1o6NZn2H_A7KWvMYI-18" edge="1">
          <mxGeometry relative="1" as="geometry">
            <Array as="points">
              <mxPoint x="140" y="620" />
              <mxPoint x="140" y="460" />
              <mxPoint x="175" y="460" />
            </Array>
          </mxGeometry>
        </mxCell>
        <mxCell id="yef1o6NZn2H_A7KWvMYI-6" value="Mostrar erro" style="rounded=0;whiteSpace=wrap;html=1;" parent="1" vertex="1">
          <mxGeometry x="147.5" y="605" width="95" height="60" as="geometry" />
        </mxCell>
        <mxCell id="yef1o6NZn2H_A7KWvMYI-32" style="edgeStyle=orthogonalEdgeStyle;rounded=0;orthogonalLoop=1;jettySize=auto;html=1;exitX=0.25;exitY=0;exitDx=0;exitDy=0;entryX=1;entryY=0.25;entryDx=0;entryDy=0;" parent="1" source="yef1o6NZn2H_A7KWvMYI-8" target="ynVQP8nHnHqJYBqfLcG1-1" edge="1">
          <mxGeometry relative="1" as="geometry">
            <Array as="points">
              <mxPoint x="324" y="360" />
              <mxPoint x="294" y="360" />
              <mxPoint x="294" y="280" />
              <mxPoint x="223" y="280" />
              <mxPoint x="223" y="310" />
            </Array>
          </mxGeometry>
        </mxCell>
        <mxCell id="yef1o6NZn2H_A7KWvMYI-8" value="Atualizado com sucesso" style="rounded=0;whiteSpace=wrap;html=1;" parent="1" vertex="1">
          <mxGeometry x="294" y="390" width="120" height="60" as="geometry" />
        </mxCell>
        <mxCell id="yef1o6NZn2H_A7KWvMYI-14" value="Não" style="edgeStyle=orthogonalEdgeStyle;rounded=0;orthogonalLoop=1;jettySize=auto;html=1;entryX=0.25;entryY=0;entryDx=0;entryDy=0;" parent="1" source="yef1o6NZn2H_A7KWvMYI-11" target="9ZjnTT0w3MI4GpvlhG_B-10" edge="1">
          <mxGeometry relative="1" as="geometry">
            <Array as="points">
              <mxPoint x="61" y="180" />
              <mxPoint x="168" y="180" />
            </Array>
          </mxGeometry>
        </mxCell>
        <mxCell id="yef1o6NZn2H_A7KWvMYI-17" value="Sim" style="edgeStyle=orthogonalEdgeStyle;rounded=0;orthogonalLoop=1;jettySize=auto;html=1;exitX=0.5;exitY=1;exitDx=0;exitDy=0;entryX=0.5;entryY=0;entryDx=0;entryDy=0;" parent="1" source="yef1o6NZn2H_A7KWvMYI-11" target="ynVQP8nHnHqJYBqfLcG1-1" edge="1">
          <mxGeometry relative="1" as="geometry" />
        </mxCell>
        <mxCell id="yef1o6NZn2H_A7KWvMYI-11" value="Encontrou cliente?" style="rhombus;whiteSpace=wrap;html=1;" parent="1" vertex="1">
          <mxGeometry x="20" y="190" width="80" height="80" as="geometry" />
        </mxCell>
        <mxCell id="yef1o6NZn2H_A7KWvMYI-19" value="Não" style="edgeStyle=orthogonalEdgeStyle;rounded=0;orthogonalLoop=1;jettySize=auto;html=1;exitX=1;exitY=0.5;exitDx=0;exitDy=0;entryX=0;entryY=0.5;entryDx=0;entryDy=0;" parent="1" source="yef1o6NZn2H_A7KWvMYI-16" target="yef1o6NZn2H_A7KWvMYI-18" edge="1">
          <mxGeometry relative="1" as="geometry" />
        </mxCell>
        <mxCell id="yef1o6NZn2H_A7KWvMYI-23" value="Sim" style="edgeStyle=orthogonalEdgeStyle;rounded=0;orthogonalLoop=1;jettySize=auto;html=1;" parent="1" source="yef1o6NZn2H_A7KWvMYI-16" target="yef1o6NZn2H_A7KWvMYI-22" edge="1">
          <mxGeometry relative="1" as="geometry" />
        </mxCell>
        <mxCell id="yef1o6NZn2H_A7KWvMYI-16" value="Apagar cliente?" style="rhombus;whiteSpace=wrap;html=1;" parent="1" vertex="1">
          <mxGeometry x="20" y="380" width="80" height="80" as="geometry" />
        </mxCell>
        <mxCell id="yef1o6NZn2H_A7KWvMYI-21" value="Não" style="edgeStyle=orthogonalEdgeStyle;rounded=0;orthogonalLoop=1;jettySize=auto;html=1;entryX=1;entryY=0.75;entryDx=0;entryDy=0;" parent="1" source="yef1o6NZn2H_A7KWvMYI-18" target="ynVQP8nHnHqJYBqfLcG1-1" edge="1">
          <mxGeometry relative="1" as="geometry">
            <Array as="points">
              <mxPoint x="195" y="330" />
            </Array>
          </mxGeometry>
        </mxCell>
        <mxCell id="yef1o6NZn2H_A7KWvMYI-28" value="Sim" style="edgeStyle=orthogonalEdgeStyle;rounded=0;orthogonalLoop=1;jettySize=auto;html=1;exitX=0.5;exitY=1;exitDx=0;exitDy=0;entryX=0.5;entryY=0;entryDx=0;entryDy=0;" parent="1" source="yef1o6NZn2H_A7KWvMYI-18" target="9ZjnTT0w3MI4GpvlhG_B-32" edge="1">
          <mxGeometry relative="1" as="geometry" />
        </mxCell>
        <mxCell id="yef1o6NZn2H_A7KWvMYI-18" value="Atualizar cliente?" style="rhombus;whiteSpace=wrap;html=1;" parent="1" vertex="1">
          <mxGeometry x="155" y="380" width="80" height="80" as="geometry" />
        </mxCell>
        <mxCell id="yef1o6NZn2H_A7KWvMYI-25" value="Sim" style="edgeStyle=orthogonalEdgeStyle;rounded=0;orthogonalLoop=1;jettySize=auto;html=1;exitX=0.5;exitY=1;exitDx=0;exitDy=0;entryX=0.5;entryY=0;entryDx=0;entryDy=0;" parent="1" source="yef1o6NZn2H_A7KWvMYI-22" target="yef1o6NZn2H_A7KWvMYI-24" edge="1">
          <mxGeometry relative="1" as="geometry" />
        </mxCell>
        <mxCell id="yef1o6NZn2H_A7KWvMYI-26" value="Não" style="edgeStyle=orthogonalEdgeStyle;rounded=0;orthogonalLoop=1;jettySize=auto;html=1;entryX=0;entryY=0.5;entryDx=0;entryDy=0;" parent="1" source="yef1o6NZn2H_A7KWvMYI-22" target="ynVQP8nHnHqJYBqfLcG1-1" edge="1">
          <mxGeometry relative="1" as="geometry">
            <mxPoint x="20" y="150" as="targetPoint" />
            <Array as="points">
              <mxPoint x="20" y="320" />
            </Array>
          </mxGeometry>
        </mxCell>
        <mxCell id="yef1o6NZn2H_A7KWvMYI-22" value="Confirmado?" style="rhombus;whiteSpace=wrap;html=1;" parent="1" vertex="1">
          <mxGeometry x="20" y="515" width="80" height="80" as="geometry" />
        </mxCell>
        <mxCell id="yef1o6NZn2H_A7KWvMYI-24" value="Apagado com sucesso" style="rounded=0;whiteSpace=wrap;html=1;" parent="1" vertex="1">
          <mxGeometry x="10" y="630" width="100" height="50" as="geometry" />
        </mxCell>
        <mxCell id="yef1o6NZn2H_A7KWvMYI-27" style="edgeStyle=orthogonalEdgeStyle;rounded=0;orthogonalLoop=1;jettySize=auto;html=1;exitX=0;exitY=0;exitDx=0;exitDy=0;entryX=0.609;entryY=0.033;entryDx=0;entryDy=0;entryPerimeter=0;" parent="1" source="yef1o6NZn2H_A7KWvMYI-24" target="9ZjnTT0w3MI4GpvlhG_B-10" edge="1">
          <mxGeometry relative="1" as="geometry">
            <mxPoint x="207" y="180" as="targetPoint" />
            <Array as="points">
              <mxPoint x="10" y="540" />
              <mxPoint x="10" y="150" />
              <mxPoint x="207" y="150" />
            </Array>
          </mxGeometry>
        </mxCell>
        <mxCell id="RPzRg4d4vbEzAeHYb3Nj-5" value="Não" style="edgeStyle=orthogonalEdgeStyle;rounded=0;orthogonalLoop=1;jettySize=auto;html=1;exitX=1;exitY=1;exitDx=0;exitDy=0;entryX=0.25;entryY=0;entryDx=0;entryDy=0;" parent="1" source="RPzRg4d4vbEzAeHYb3Nj-1" target="9ZjnTT0w3MI4GpvlhG_B-13" edge="1">
          <mxGeometry relative="1" as="geometry">
            <Array as="points">
              <mxPoint x="280" y="180" />
              <mxPoint x="300" y="180" />
            </Array>
          </mxGeometry>
        </mxCell>
        <mxCell id="RPzRg4d4vbEzAeHYb3Nj-1" value="Cliente cadastrado?" style="rhombus;whiteSpace=wrap;html=1;" parent="1" vertex="1">
          <mxGeometry x="220" y="90" width="80" height="80" as="geometry" />
        </mxCell>
        <mxCell id="RPzRg4d4vbEzAeHYb3Nj-4" value="Sim" style="edgeStyle=orthogonalEdgeStyle;rounded=0;orthogonalLoop=1;jettySize=auto;html=1;exitX=0;exitY=1;exitDx=0;exitDy=0;entryX=0.75;entryY=0;entryDx=0;entryDy=0;" parent="1" source="RPzRg4d4vbEzAeHYb3Nj-1" target="9ZjnTT0w3MI4GpvlhG_B-10" edge="1">
          <mxGeometry relative="1" as="geometry">
            <Array as="points">
              <mxPoint x="240" y="180" />
              <mxPoint x="223" y="180" />
            </Array>
          </mxGeometry>
        </mxCell>
        <mxCell id="ynVQP8nHnHqJYBqfLcG1-2" style="edgeStyle=orthogonalEdgeStyle;rounded=0;orthogonalLoop=1;jettySize=auto;html=1;exitX=0.5;exitY=1;exitDx=0;exitDy=0;entryX=0.5;entryY=0;entryDx=0;entryDy=0;" edge="1" parent="1" source="ynVQP8nHnHqJYBqfLcG1-1" target="yef1o6NZn2H_A7KWvMYI-16">
          <mxGeometry relative="1" as="geometry" />
        </mxCell>
        <mxCell id="ynVQP8nHnHqJYBqfLcG1-1" value="Cliente" style="rounded=0;whiteSpace=wrap;html=1;" vertex="1" parent="1">
          <mxGeometry x="25.63" y="300" width="68.75" height="40" as="geometry" />
        </mxCell>
      </root>
    </mxGraphModel>
  </diagram>
  <diagram id="IjJlqsvJGofWrVWf3G4w" name="Página-2">
    <mxGraphModel dx="1434" dy="772" grid="1" gridSize="10" guides="1" tooltips="1" connect="1" arrows="1" fold="1" page="1" pageScale="1" pageWidth="827" pageHeight="1169" math="0" shadow="0">
      <root>
        <mxCell id="0" />
        <mxCell id="1" parent="0" />
        <mxCell id="PlYjLFIuy9nCugvaB1i1-19" value="SIM" style="edgeStyle=orthogonalEdgeStyle;rounded=0;orthogonalLoop=1;jettySize=auto;html=1;entryX=1;entryY=0.25;entryDx=0;entryDy=0;" parent="1" edge="1">
          <mxGeometry relative="1" as="geometry">
            <Array as="points">
              <mxPoint x="760" y="250" />
              <mxPoint x="760" y="55" />
            </Array>
            <mxPoint x="330" y="55" as="targetPoint" />
          </mxGeometry>
        </mxCell>
        <mxCell id="dn4988suvcBACxyeZeVZ-1" style="edgeStyle=orthogonalEdgeStyle;rounded=0;orthogonalLoop=1;jettySize=auto;html=1;exitX=1;exitY=0.5;exitDx=0;exitDy=0;" parent="1" source="dn4988suvcBACxyeZeVZ-2" target="dn4988suvcBACxyeZeVZ-5" edge="1">
          <mxGeometry relative="1" as="geometry" />
        </mxCell>
        <mxCell id="dn4988suvcBACxyeZeVZ-2" value="Inicio" style="ellipse;whiteSpace=wrap;html=1;" parent="1" vertex="1">
          <mxGeometry x="21.25" y="10" width="100" height="70" as="geometry" />
        </mxCell>
        <mxCell id="dB4CB1S0OAf7AKgRNOVP-5" style="edgeStyle=orthogonalEdgeStyle;rounded=0;orthogonalLoop=1;jettySize=auto;html=1;exitX=0.5;exitY=1;exitDx=0;exitDy=0;entryX=0.5;entryY=0;entryDx=0;entryDy=0;" parent="1" source="dn4988suvcBACxyeZeVZ-5" target="dB4CB1S0OAf7AKgRNOVP-1" edge="1">
          <mxGeometry relative="1" as="geometry" />
        </mxCell>
        <mxCell id="dn4988suvcBACxyeZeVZ-5" value="Lista de fornecedores" style="rounded=0;whiteSpace=wrap;html=1;" parent="1" vertex="1">
          <mxGeometry x="200" y="15" width="120" height="60" as="geometry" />
        </mxCell>
        <mxCell id="dn4988suvcBACxyeZeVZ-11" style="edgeStyle=orthogonalEdgeStyle;rounded=0;orthogonalLoop=1;jettySize=auto;html=1;exitX=0;exitY=0.5;exitDx=0;exitDy=0;entryX=1;entryY=0.5;entryDx=0;entryDy=0;" parent="1" source="dn4988suvcBACxyeZeVZ-12" target="dn4988suvcBACxyeZeVZ-28" edge="1">
          <mxGeometry relative="1" as="geometry">
            <mxPoint x="112.5" y="210" as="targetPoint" />
          </mxGeometry>
        </mxCell>
        <mxCell id="dn4988suvcBACxyeZeVZ-12" value="Procurar fornecedores" style="rounded=0;whiteSpace=wrap;html=1;" parent="1" vertex="1">
          <mxGeometry x="132.5" y="210" width="110" height="60" as="geometry" />
        </mxCell>
        <mxCell id="YbVgTa8CxxeQNgzaFVoR-14" style="edgeStyle=orthogonalEdgeStyle;rounded=0;orthogonalLoop=1;jettySize=auto;html=1;exitX=1;exitY=0.5;exitDx=0;exitDy=0;entryX=0;entryY=0.5;entryDx=0;entryDy=0;" parent="1" source="dn4988suvcBACxyeZeVZ-14" target="YbVgTa8CxxeQNgzaFVoR-13" edge="1">
          <mxGeometry relative="1" as="geometry">
            <mxPoint x="420" y="210" as="targetPoint" />
          </mxGeometry>
        </mxCell>
        <mxCell id="dn4988suvcBACxyeZeVZ-14" value="Cadastrar fornecedor" style="rounded=0;whiteSpace=wrap;html=1;" parent="1" vertex="1">
          <mxGeometry x="270" y="180" width="120" height="60" as="geometry" />
        </mxCell>
        <mxCell id="dn4988suvcBACxyeZeVZ-15" value="Não" style="edgeStyle=orthogonalEdgeStyle;rounded=0;orthogonalLoop=1;jettySize=auto;html=1;exitX=0.5;exitY=1;exitDx=0;exitDy=0;entryX=0.5;entryY=0;entryDx=0;entryDy=0;" parent="1" source="dn4988suvcBACxyeZeVZ-17" target="dn4988suvcBACxyeZeVZ-23" edge="1">
          <mxGeometry relative="1" as="geometry" />
        </mxCell>
        <mxCell id="dn4988suvcBACxyeZeVZ-16" value="Sim" style="edgeStyle=orthogonalEdgeStyle;rounded=0;orthogonalLoop=1;jettySize=auto;html=1;exitX=1;exitY=0.5;exitDx=0;exitDy=0;entryX=0;entryY=0.5;entryDx=0;entryDy=0;" parent="1" source="dn4988suvcBACxyeZeVZ-17" target="dn4988suvcBACxyeZeVZ-25" edge="1">
          <mxGeometry relative="1" as="geometry" />
        </mxCell>
        <mxCell id="dn4988suvcBACxyeZeVZ-17" value="Dados validos?" style="rhombus;whiteSpace=wrap;html=1;" parent="1" vertex="1">
          <mxGeometry x="147.5" y="510" width="80" height="80" as="geometry" />
        </mxCell>
        <mxCell id="dn4988suvcBACxyeZeVZ-22" style="edgeStyle=orthogonalEdgeStyle;rounded=0;orthogonalLoop=1;jettySize=auto;html=1;exitX=0;exitY=0.25;exitDx=0;exitDy=0;entryX=0;entryY=1;entryDx=0;entryDy=0;" parent="1" source="dn4988suvcBACxyeZeVZ-23" target="dn4988suvcBACxyeZeVZ-34" edge="1">
          <mxGeometry relative="1" as="geometry">
            <Array as="points">
              <mxPoint x="140" y="590" />
              <mxPoint x="140" y="410" />
            </Array>
          </mxGeometry>
        </mxCell>
        <mxCell id="dn4988suvcBACxyeZeVZ-23" value="Mostrar erro" style="rounded=0;whiteSpace=wrap;html=1;" parent="1" vertex="1">
          <mxGeometry x="140" y="625" width="95" height="60" as="geometry" />
        </mxCell>
        <mxCell id="dn4988suvcBACxyeZeVZ-24" style="edgeStyle=orthogonalEdgeStyle;rounded=0;orthogonalLoop=1;jettySize=auto;html=1;exitX=0;exitY=0;exitDx=0;exitDy=0;entryX=1;entryY=0;entryDx=0;entryDy=0;" parent="1" source="dn4988suvcBACxyeZeVZ-25" target="uiJVXJCxzEI6Uqufln-1-1" edge="1">
          <mxGeometry relative="1" as="geometry">
            <Array as="points">
              <mxPoint x="294" y="310" />
            </Array>
          </mxGeometry>
        </mxCell>
        <mxCell id="dn4988suvcBACxyeZeVZ-25" value="Atualizado com sucesso" style="rounded=0;whiteSpace=wrap;html=1;" parent="1" vertex="1">
          <mxGeometry x="294" y="460" width="120" height="60" as="geometry" />
        </mxCell>
        <mxCell id="dn4988suvcBACxyeZeVZ-27" value="Sim" style="edgeStyle=orthogonalEdgeStyle;rounded=0;orthogonalLoop=1;jettySize=auto;html=1;exitX=0.5;exitY=1;exitDx=0;exitDy=0;entryX=0.5;entryY=0;entryDx=0;entryDy=0;" parent="1" source="dn4988suvcBACxyeZeVZ-28" target="uiJVXJCxzEI6Uqufln-1-1" edge="1">
          <mxGeometry relative="1" as="geometry" />
        </mxCell>
        <mxCell id="dB4CB1S0OAf7AKgRNOVP-2" value="Não" style="edgeStyle=orthogonalEdgeStyle;rounded=0;orthogonalLoop=1;jettySize=auto;html=1;entryX=0.25;entryY=0;entryDx=0;entryDy=0;" parent="1" source="dn4988suvcBACxyeZeVZ-28" target="dn4988suvcBACxyeZeVZ-12" edge="1">
          <mxGeometry relative="1" as="geometry">
            <Array as="points">
              <mxPoint x="61" y="180" />
              <mxPoint x="160" y="180" />
            </Array>
          </mxGeometry>
        </mxCell>
        <mxCell id="dn4988suvcBACxyeZeVZ-28" value="Encontrou fornecedor?" style="rhombus;whiteSpace=wrap;html=1;" parent="1" vertex="1">
          <mxGeometry x="21.25" y="200" width="80" height="80" as="geometry" />
        </mxCell>
        <mxCell id="dn4988suvcBACxyeZeVZ-29" value="Não" style="edgeStyle=orthogonalEdgeStyle;rounded=0;orthogonalLoop=1;jettySize=auto;html=1;exitX=1;exitY=0.5;exitDx=0;exitDy=0;entryX=0;entryY=0.5;entryDx=0;entryDy=0;" parent="1" source="dn4988suvcBACxyeZeVZ-31" target="dn4988suvcBACxyeZeVZ-34" edge="1">
          <mxGeometry relative="1" as="geometry" />
        </mxCell>
        <mxCell id="dn4988suvcBACxyeZeVZ-30" value="Sim" style="edgeStyle=orthogonalEdgeStyle;rounded=0;orthogonalLoop=1;jettySize=auto;html=1;" parent="1" source="dn4988suvcBACxyeZeVZ-31" target="dn4988suvcBACxyeZeVZ-37" edge="1">
          <mxGeometry relative="1" as="geometry" />
        </mxCell>
        <mxCell id="dn4988suvcBACxyeZeVZ-31" value="Apagar fornecedor?" style="rhombus;whiteSpace=wrap;html=1;" parent="1" vertex="1">
          <mxGeometry x="21.25" y="380" width="80" height="80" as="geometry" />
        </mxCell>
        <mxCell id="dn4988suvcBACxyeZeVZ-32" value="Não" style="edgeStyle=orthogonalEdgeStyle;rounded=0;orthogonalLoop=1;jettySize=auto;html=1;entryX=1;entryY=0.5;entryDx=0;entryDy=0;" parent="1" source="dn4988suvcBACxyeZeVZ-34" target="uiJVXJCxzEI6Uqufln-1-1" edge="1">
          <mxGeometry relative="1" as="geometry">
            <Array as="points">
              <mxPoint x="188" y="330" />
            </Array>
            <mxPoint as="offset" />
          </mxGeometry>
        </mxCell>
        <mxCell id="dn4988suvcBACxyeZeVZ-33" value="Sim" style="edgeStyle=orthogonalEdgeStyle;rounded=0;orthogonalLoop=1;jettySize=auto;html=1;exitX=0.5;exitY=1;exitDx=0;exitDy=0;entryX=0.5;entryY=0;entryDx=0;entryDy=0;" parent="1" source="dn4988suvcBACxyeZeVZ-34" target="dn4988suvcBACxyeZeVZ-17" edge="1">
          <mxGeometry relative="1" as="geometry" />
        </mxCell>
        <mxCell id="dn4988suvcBACxyeZeVZ-34" value="Atualizar fornecedor?" style="rhombus;whiteSpace=wrap;html=1;" parent="1" vertex="1">
          <mxGeometry x="147.5" y="380" width="80" height="80" as="geometry" />
        </mxCell>
        <mxCell id="dn4988suvcBACxyeZeVZ-35" value="Sim" style="edgeStyle=orthogonalEdgeStyle;rounded=0;orthogonalLoop=1;jettySize=auto;html=1;exitX=0.5;exitY=1;exitDx=0;exitDy=0;entryX=0.5;entryY=0;entryDx=0;entryDy=0;" parent="1" source="dn4988suvcBACxyeZeVZ-37" target="dn4988suvcBACxyeZeVZ-38" edge="1">
          <mxGeometry relative="1" as="geometry" />
        </mxCell>
        <mxCell id="dB4CB1S0OAf7AKgRNOVP-3" value="Não" style="edgeStyle=orthogonalEdgeStyle;rounded=0;orthogonalLoop=1;jettySize=auto;html=1;exitX=0;exitY=0;exitDx=0;exitDy=0;entryX=0;entryY=0.5;entryDx=0;entryDy=0;" parent="1" source="dn4988suvcBACxyeZeVZ-37" target="uiJVXJCxzEI6Uqufln-1-1" edge="1">
          <mxGeometry relative="1" as="geometry">
            <Array as="points">
              <mxPoint x="20" y="530" />
              <mxPoint x="20" y="330" />
            </Array>
          </mxGeometry>
        </mxCell>
        <mxCell id="dn4988suvcBACxyeZeVZ-37" value="Confirmado?" style="rhombus;whiteSpace=wrap;html=1;" parent="1" vertex="1">
          <mxGeometry x="21.25" y="510" width="80" height="80" as="geometry" />
        </mxCell>
        <mxCell id="dB4CB1S0OAf7AKgRNOVP-4" style="edgeStyle=orthogonalEdgeStyle;rounded=0;orthogonalLoop=1;jettySize=auto;html=1;exitX=0;exitY=0;exitDx=0;exitDy=0;entryX=0.75;entryY=0;entryDx=0;entryDy=0;" parent="1" source="dn4988suvcBACxyeZeVZ-38" target="dn4988suvcBACxyeZeVZ-12" edge="1">
          <mxGeometry relative="1" as="geometry">
            <Array as="points">
              <mxPoint x="11" y="160" />
              <mxPoint x="215" y="160" />
            </Array>
          </mxGeometry>
        </mxCell>
        <mxCell id="dn4988suvcBACxyeZeVZ-38" value="Apagado com sucesso" style="rounded=0;whiteSpace=wrap;html=1;" parent="1" vertex="1">
          <mxGeometry x="11.25" y="635" width="100" height="50" as="geometry" />
        </mxCell>
        <mxCell id="dB4CB1S0OAf7AKgRNOVP-6" value="Não" style="edgeStyle=orthogonalEdgeStyle;rounded=0;orthogonalLoop=1;jettySize=auto;html=1;exitX=1;exitY=1;exitDx=0;exitDy=0;entryX=0.25;entryY=0;entryDx=0;entryDy=0;" parent="1" source="dB4CB1S0OAf7AKgRNOVP-1" target="dn4988suvcBACxyeZeVZ-14" edge="1">
          <mxGeometry relative="1" as="geometry" />
        </mxCell>
        <mxCell id="dB4CB1S0OAf7AKgRNOVP-7" value="Sim" style="edgeStyle=orthogonalEdgeStyle;rounded=0;orthogonalLoop=1;jettySize=auto;html=1;exitX=0;exitY=1;exitDx=0;exitDy=0;entryX=1;entryY=0;entryDx=0;entryDy=0;" parent="1" source="dB4CB1S0OAf7AKgRNOVP-1" target="dn4988suvcBACxyeZeVZ-12" edge="1">
          <mxGeometry relative="1" as="geometry" />
        </mxCell>
        <mxCell id="dB4CB1S0OAf7AKgRNOVP-1" value="Fornecedor cadastrado?" style="rhombus;whiteSpace=wrap;html=1;" parent="1" vertex="1">
          <mxGeometry x="220" y="90" width="80" height="80" as="geometry" />
        </mxCell>
        <mxCell id="YbVgTa8CxxeQNgzaFVoR-19" style="edgeStyle=orthogonalEdgeStyle;rounded=0;orthogonalLoop=1;jettySize=auto;html=1;exitX=1;exitY=0.5;exitDx=0;exitDy=0;entryX=0;entryY=0.5;entryDx=0;entryDy=0;" parent="1" target="yfOVr6V4RUfL7PJU6iUO-5" edge="1">
          <mxGeometry relative="1" as="geometry">
            <mxPoint x="524" y="210" as="sourcePoint" />
            <mxPoint x="550" y="210" as="targetPoint" />
          </mxGeometry>
        </mxCell>
        <mxCell id="YbVgTa8CxxeQNgzaFVoR-13" value="Dados do fornecedor Nome, telefone e email&amp;nbsp;" style="rounded=0;whiteSpace=wrap;html=1;" parent="1" vertex="1">
          <mxGeometry x="414" y="180" width="120" height="60" as="geometry" />
        </mxCell>
        <mxCell id="yfOVr6V4RUfL7PJU6iUO-3" value="Sim" style="edgeStyle=orthogonalEdgeStyle;rounded=0;orthogonalLoop=1;jettySize=auto;html=1;exitX=0.5;exitY=0;exitDx=0;exitDy=0;entryX=1;entryY=0.5;entryDx=0;entryDy=0;" edge="1" parent="1" source="yfOVr6V4RUfL7PJU6iUO-5" target="yfOVr6V4RUfL7PJU6iUO-8">
          <mxGeometry relative="1" as="geometry">
            <mxPoint x="660" y="100" as="targetPoint" />
          </mxGeometry>
        </mxCell>
        <mxCell id="yfOVr6V4RUfL7PJU6iUO-4" value="Não" style="edgeStyle=orthogonalEdgeStyle;rounded=0;orthogonalLoop=1;jettySize=auto;html=1;" edge="1" parent="1" source="yfOVr6V4RUfL7PJU6iUO-5" target="yfOVr6V4RUfL7PJU6iUO-7">
          <mxGeometry relative="1" as="geometry">
            <mxPoint x="710" y="260" as="targetPoint" />
            <Array as="points">
              <mxPoint x="600" y="250" />
              <mxPoint x="730" y="250" />
            </Array>
          </mxGeometry>
        </mxCell>
        <mxCell id="yfOVr6V4RUfL7PJU6iUO-5" value="Dados validos?" style="rhombus;whiteSpace=wrap;html=1;" vertex="1" parent="1">
          <mxGeometry x="570" y="170" width="80" height="80" as="geometry" />
        </mxCell>
        <mxCell id="SSzIzWUBmuI-zjsp0gdD-1" style="edgeStyle=orthogonalEdgeStyle;rounded=0;orthogonalLoop=1;jettySize=auto;html=1;entryX=0.5;entryY=1;entryDx=0;entryDy=0;exitX=1;exitY=0.5;exitDx=0;exitDy=0;" edge="1" parent="1" source="yfOVr6V4RUfL7PJU6iUO-7" target="dn4988suvcBACxyeZeVZ-14">
          <mxGeometry relative="1" as="geometry">
            <Array as="points">
              <mxPoint x="800" y="190" />
              <mxPoint x="800" y="290" />
              <mxPoint x="330" y="290" />
            </Array>
          </mxGeometry>
        </mxCell>
        <mxCell id="yfOVr6V4RUfL7PJU6iUO-7" value="Mostrar erro" style="rounded=0;whiteSpace=wrap;html=1;" vertex="1" parent="1">
          <mxGeometry x="670" y="160" width="120" height="60" as="geometry" />
        </mxCell>
        <mxCell id="jb4ijX0kiNJy3LJuI8lU-1" style="edgeStyle=orthogonalEdgeStyle;rounded=0;orthogonalLoop=1;jettySize=auto;html=1;entryX=0.5;entryY=0;entryDx=0;entryDy=0;" edge="1" parent="1" source="yfOVr6V4RUfL7PJU6iUO-8" target="dn4988suvcBACxyeZeVZ-14">
          <mxGeometry relative="1" as="geometry" />
        </mxCell>
        <mxCell id="yfOVr6V4RUfL7PJU6iUO-8" value="Cadastro bem sucedido&amp;nbsp;" style="rounded=0;whiteSpace=wrap;html=1;" vertex="1" parent="1">
          <mxGeometry x="430" y="60" width="120" height="60" as="geometry" />
        </mxCell>
        <mxCell id="uiJVXJCxzEI6Uqufln-1-2" style="edgeStyle=orthogonalEdgeStyle;rounded=0;orthogonalLoop=1;jettySize=auto;html=1;entryX=0.5;entryY=0;entryDx=0;entryDy=0;" edge="1" parent="1" source="uiJVXJCxzEI6Uqufln-1-1" target="dn4988suvcBACxyeZeVZ-31">
          <mxGeometry relative="1" as="geometry" />
        </mxCell>
        <mxCell id="uiJVXJCxzEI6Uqufln-1-1" value="Fornecedor" style="rounded=0;whiteSpace=wrap;html=1;" vertex="1" parent="1">
          <mxGeometry x="26.87" y="310" width="68.75" height="40" as="geometry" />
        </mxCell>
      </root>
    </mxGraphModel>
  </diagram>
  <diagram id="OlCTVRYIUVrinJHkDG8i" name="Página-5">
    <mxGraphModel dx="1434" dy="772" grid="1" gridSize="10" guides="1" tooltips="1" connect="1" arrows="1" fold="1" page="1" pageScale="1" pageWidth="827" pageHeight="1169" math="0" shadow="0">
      <root>
        <mxCell id="0" />
        <mxCell id="1" parent="0" />
        <mxCell id="Y7aBbypWV744SkM9br2G-1" style="edgeStyle=orthogonalEdgeStyle;rounded=0;orthogonalLoop=1;jettySize=auto;html=1;exitX=1;exitY=0.5;exitDx=0;exitDy=0;" edge="1" parent="1" source="Y7aBbypWV744SkM9br2G-2" target="Y7aBbypWV744SkM9br2G-4">
          <mxGeometry relative="1" as="geometry" />
        </mxCell>
        <mxCell id="Y7aBbypWV744SkM9br2G-2" value="Inicio" style="ellipse;whiteSpace=wrap;html=1;" vertex="1" parent="1">
          <mxGeometry x="21.25" y="20" width="100" height="70" as="geometry" />
        </mxCell>
        <mxCell id="Y7aBbypWV744SkM9br2G-3" style="edgeStyle=orthogonalEdgeStyle;rounded=0;orthogonalLoop=1;jettySize=auto;html=1;exitX=0.5;exitY=1;exitDx=0;exitDy=0;entryX=0.5;entryY=0;entryDx=0;entryDy=0;" edge="1" parent="1" source="Y7aBbypWV744SkM9br2G-4" target="Y7aBbypWV744SkM9br2G-32">
          <mxGeometry relative="1" as="geometry" />
        </mxCell>
        <mxCell id="Y7aBbypWV744SkM9br2G-4" value="Lista de transportadoras" style="rounded=0;whiteSpace=wrap;html=1;" vertex="1" parent="1">
          <mxGeometry x="200" y="25" width="120" height="60" as="geometry" />
        </mxCell>
        <mxCell id="Y7aBbypWV744SkM9br2G-5" style="edgeStyle=orthogonalEdgeStyle;rounded=0;orthogonalLoop=1;jettySize=auto;html=1;exitX=0;exitY=0.5;exitDx=0;exitDy=0;entryX=1;entryY=0.5;entryDx=0;entryDy=0;" edge="1" parent="1" source="Y7aBbypWV744SkM9br2G-6" target="Y7aBbypWV744SkM9br2G-18">
          <mxGeometry relative="1" as="geometry">
            <mxPoint x="112.5" y="220" as="targetPoint" />
          </mxGeometry>
        </mxCell>
        <mxCell id="Y7aBbypWV744SkM9br2G-6" value="Procurar transportadora" style="rounded=0;whiteSpace=wrap;html=1;" vertex="1" parent="1">
          <mxGeometry x="132.5" y="220" width="110" height="60" as="geometry" />
        </mxCell>
        <mxCell id="Y7aBbypWV744SkM9br2G-7" style="edgeStyle=orthogonalEdgeStyle;rounded=0;orthogonalLoop=1;jettySize=auto;html=1;exitX=1;exitY=0.5;exitDx=0;exitDy=0;entryX=0;entryY=0.5;entryDx=0;entryDy=0;" edge="1" parent="1" source="Y7aBbypWV744SkM9br2G-8" target="Y7aBbypWV744SkM9br2G-34">
          <mxGeometry relative="1" as="geometry">
            <mxPoint x="420" y="220" as="targetPoint" />
          </mxGeometry>
        </mxCell>
        <mxCell id="Y7aBbypWV744SkM9br2G-8" value="Cadastrar transportadora" style="rounded=0;whiteSpace=wrap;html=1;" vertex="1" parent="1">
          <mxGeometry x="270" y="190" width="120" height="60" as="geometry" />
        </mxCell>
        <mxCell id="Y7aBbypWV744SkM9br2G-9" value="Não" style="edgeStyle=orthogonalEdgeStyle;rounded=0;orthogonalLoop=1;jettySize=auto;html=1;exitX=0.5;exitY=1;exitDx=0;exitDy=0;entryX=0.5;entryY=0;entryDx=0;entryDy=0;" edge="1" parent="1" source="Y7aBbypWV744SkM9br2G-11" target="Y7aBbypWV744SkM9br2G-13">
          <mxGeometry relative="1" as="geometry" />
        </mxCell>
        <mxCell id="Y7aBbypWV744SkM9br2G-10" value="Sim" style="edgeStyle=orthogonalEdgeStyle;rounded=0;orthogonalLoop=1;jettySize=auto;html=1;exitX=1;exitY=0.5;exitDx=0;exitDy=0;entryX=0;entryY=0.5;entryDx=0;entryDy=0;" edge="1" parent="1" source="Y7aBbypWV744SkM9br2G-11" target="Y7aBbypWV744SkM9br2G-15">
          <mxGeometry relative="1" as="geometry" />
        </mxCell>
        <mxCell id="Y7aBbypWV744SkM9br2G-11" value="Dados validos?" style="rhombus;whiteSpace=wrap;html=1;" vertex="1" parent="1">
          <mxGeometry x="163.5" y="520" width="80" height="80" as="geometry" />
        </mxCell>
        <mxCell id="Y7aBbypWV744SkM9br2G-12" style="edgeStyle=orthogonalEdgeStyle;rounded=0;orthogonalLoop=1;jettySize=auto;html=1;exitX=0;exitY=0.25;exitDx=0;exitDy=0;entryX=0;entryY=1;entryDx=0;entryDy=0;" edge="1" parent="1" source="Y7aBbypWV744SkM9br2G-13" target="Y7aBbypWV744SkM9br2G-24">
          <mxGeometry relative="1" as="geometry">
            <Array as="points">
              <mxPoint x="156" y="600" />
              <mxPoint x="156" y="420" />
            </Array>
          </mxGeometry>
        </mxCell>
        <mxCell id="Y7aBbypWV744SkM9br2G-13" value="Mostrar erro" style="rounded=0;whiteSpace=wrap;html=1;" vertex="1" parent="1">
          <mxGeometry x="156" y="635" width="95" height="60" as="geometry" />
        </mxCell>
        <mxCell id="Y7aBbypWV744SkM9br2G-14" style="edgeStyle=orthogonalEdgeStyle;rounded=0;orthogonalLoop=1;jettySize=auto;html=1;exitX=0;exitY=0;exitDx=0;exitDy=0;entryX=1;entryY=0;entryDx=0;entryDy=0;" edge="1" parent="1" source="Y7aBbypWV744SkM9br2G-15" target="Y7aBbypWV744SkM9br2G-43">
          <mxGeometry relative="1" as="geometry">
            <Array as="points">
              <mxPoint x="310" y="320" />
            </Array>
            <mxPoint x="111.61999999999989" y="320" as="targetPoint" />
          </mxGeometry>
        </mxCell>
        <mxCell id="Y7aBbypWV744SkM9br2G-15" value="Atualizado com sucesso" style="rounded=0;whiteSpace=wrap;html=1;" vertex="1" parent="1">
          <mxGeometry x="310" y="470" width="120" height="60" as="geometry" />
        </mxCell>
        <mxCell id="Y7aBbypWV744SkM9br2G-16" value="Sim" style="edgeStyle=orthogonalEdgeStyle;rounded=0;orthogonalLoop=1;jettySize=auto;html=1;exitX=0.5;exitY=1;exitDx=0;exitDy=0;entryX=0.5;entryY=0;entryDx=0;entryDy=0;" edge="1" parent="1" source="Y7aBbypWV744SkM9br2G-18" target="Y7aBbypWV744SkM9br2G-43">
          <mxGeometry relative="1" as="geometry" />
        </mxCell>
        <mxCell id="Y7aBbypWV744SkM9br2G-17" value="Não" style="edgeStyle=orthogonalEdgeStyle;rounded=0;orthogonalLoop=1;jettySize=auto;html=1;entryX=0.25;entryY=0;entryDx=0;entryDy=0;" edge="1" parent="1" source="Y7aBbypWV744SkM9br2G-18" target="Y7aBbypWV744SkM9br2G-6">
          <mxGeometry relative="1" as="geometry">
            <Array as="points">
              <mxPoint x="61" y="190" />
              <mxPoint x="160" y="190" />
            </Array>
          </mxGeometry>
        </mxCell>
        <mxCell id="Y7aBbypWV744SkM9br2G-18" value="Encontrou transportadora?" style="rhombus;whiteSpace=wrap;html=1;" vertex="1" parent="1">
          <mxGeometry x="21.25" y="210" width="80" height="80" as="geometry" />
        </mxCell>
        <mxCell id="Y7aBbypWV744SkM9br2G-19" value="Não" style="edgeStyle=orthogonalEdgeStyle;rounded=0;orthogonalLoop=1;jettySize=auto;html=1;exitX=1;exitY=0.5;exitDx=0;exitDy=0;entryX=0;entryY=0.5;entryDx=0;entryDy=0;" edge="1" parent="1" source="Y7aBbypWV744SkM9br2G-21" target="Y7aBbypWV744SkM9br2G-24">
          <mxGeometry relative="1" as="geometry">
            <mxPoint x="117.25" y="430" as="sourcePoint" />
          </mxGeometry>
        </mxCell>
        <mxCell id="Y7aBbypWV744SkM9br2G-20" value="Sim" style="edgeStyle=orthogonalEdgeStyle;rounded=0;orthogonalLoop=1;jettySize=auto;html=1;" edge="1" parent="1" source="Y7aBbypWV744SkM9br2G-21" target="Y7aBbypWV744SkM9br2G-27">
          <mxGeometry relative="1" as="geometry" />
        </mxCell>
        <mxCell id="Y7aBbypWV744SkM9br2G-21" value="Apagar transportadora?" style="rhombus;whiteSpace=wrap;html=1;" vertex="1" parent="1">
          <mxGeometry x="33.43" y="390" width="80" height="80" as="geometry" />
        </mxCell>
        <mxCell id="Y7aBbypWV744SkM9br2G-22" value="Não" style="edgeStyle=orthogonalEdgeStyle;rounded=0;orthogonalLoop=1;jettySize=auto;html=1;entryX=1;entryY=0.5;entryDx=0;entryDy=0;" edge="1" parent="1" source="Y7aBbypWV744SkM9br2G-24" target="Y7aBbypWV744SkM9br2G-43">
          <mxGeometry relative="1" as="geometry">
            <Array as="points">
              <mxPoint x="204" y="340" />
            </Array>
            <mxPoint as="offset" />
            <mxPoint x="111.61999999999989" y="340" as="targetPoint" />
          </mxGeometry>
        </mxCell>
        <mxCell id="Y7aBbypWV744SkM9br2G-23" value="Sim" style="edgeStyle=orthogonalEdgeStyle;rounded=0;orthogonalLoop=1;jettySize=auto;html=1;exitX=0.5;exitY=1;exitDx=0;exitDy=0;entryX=0.5;entryY=0;entryDx=0;entryDy=0;" edge="1" parent="1" source="Y7aBbypWV744SkM9br2G-24" target="Y7aBbypWV744SkM9br2G-11">
          <mxGeometry relative="1" as="geometry" />
        </mxCell>
        <mxCell id="Y7aBbypWV744SkM9br2G-24" value="Atualizar transportadora?" style="rhombus;whiteSpace=wrap;html=1;" vertex="1" parent="1">
          <mxGeometry x="163.5" y="390" width="80" height="80" as="geometry" />
        </mxCell>
        <mxCell id="Y7aBbypWV744SkM9br2G-25" value="Sim" style="edgeStyle=orthogonalEdgeStyle;rounded=0;orthogonalLoop=1;jettySize=auto;html=1;exitX=0.5;exitY=1;exitDx=0;exitDy=0;entryX=0.5;entryY=0;entryDx=0;entryDy=0;" edge="1" parent="1" source="Y7aBbypWV744SkM9br2G-27" target="Y7aBbypWV744SkM9br2G-29">
          <mxGeometry relative="1" as="geometry" />
        </mxCell>
        <mxCell id="Y7aBbypWV744SkM9br2G-26" value="Não" style="edgeStyle=orthogonalEdgeStyle;rounded=0;orthogonalLoop=1;jettySize=auto;html=1;exitX=0;exitY=0;exitDx=0;exitDy=0;entryX=0;entryY=0.5;entryDx=0;entryDy=0;" edge="1" parent="1" source="Y7aBbypWV744SkM9br2G-27" target="Y7aBbypWV744SkM9br2G-43">
          <mxGeometry relative="1" as="geometry">
            <Array as="points">
              <mxPoint x="20" y="540" />
              <mxPoint x="20" y="340" />
            </Array>
          </mxGeometry>
        </mxCell>
        <mxCell id="Y7aBbypWV744SkM9br2G-27" value="Confirmado?" style="rhombus;whiteSpace=wrap;html=1;" vertex="1" parent="1">
          <mxGeometry x="33.43" y="520" width="80" height="80" as="geometry" />
        </mxCell>
        <mxCell id="Y7aBbypWV744SkM9br2G-28" style="edgeStyle=orthogonalEdgeStyle;rounded=0;orthogonalLoop=1;jettySize=auto;html=1;exitX=0;exitY=0;exitDx=0;exitDy=0;entryX=0.75;entryY=0;entryDx=0;entryDy=0;" edge="1" parent="1" source="Y7aBbypWV744SkM9br2G-29" target="Y7aBbypWV744SkM9br2G-6">
          <mxGeometry relative="1" as="geometry">
            <Array as="points">
              <mxPoint x="11" y="170" />
              <mxPoint x="215" y="170" />
            </Array>
          </mxGeometry>
        </mxCell>
        <mxCell id="Y7aBbypWV744SkM9br2G-29" value="Apagado com sucesso" style="rounded=0;whiteSpace=wrap;html=1;" vertex="1" parent="1">
          <mxGeometry x="23.43" y="645" width="100" height="50" as="geometry" />
        </mxCell>
        <mxCell id="Y7aBbypWV744SkM9br2G-30" value="Não" style="edgeStyle=orthogonalEdgeStyle;rounded=0;orthogonalLoop=1;jettySize=auto;html=1;exitX=1;exitY=1;exitDx=0;exitDy=0;entryX=0.25;entryY=0;entryDx=0;entryDy=0;" edge="1" parent="1" source="Y7aBbypWV744SkM9br2G-32" target="Y7aBbypWV744SkM9br2G-8">
          <mxGeometry relative="1" as="geometry" />
        </mxCell>
        <mxCell id="Y7aBbypWV744SkM9br2G-31" value="Sim" style="edgeStyle=orthogonalEdgeStyle;rounded=0;orthogonalLoop=1;jettySize=auto;html=1;exitX=0;exitY=1;exitDx=0;exitDy=0;entryX=1;entryY=0;entryDx=0;entryDy=0;" edge="1" parent="1" source="Y7aBbypWV744SkM9br2G-32" target="Y7aBbypWV744SkM9br2G-6">
          <mxGeometry relative="1" as="geometry" />
        </mxCell>
        <mxCell id="Y7aBbypWV744SkM9br2G-32" value="Transportadora&lt;div&gt;cadastrada?&lt;/div&gt;" style="rhombus;whiteSpace=wrap;html=1;" vertex="1" parent="1">
          <mxGeometry x="220" y="100" width="80" height="80" as="geometry" />
        </mxCell>
        <mxCell id="Y7aBbypWV744SkM9br2G-33" style="edgeStyle=orthogonalEdgeStyle;rounded=0;orthogonalLoop=1;jettySize=auto;html=1;exitX=1;exitY=0.5;exitDx=0;exitDy=0;entryX=0;entryY=0.5;entryDx=0;entryDy=0;" edge="1" parent="1" target="Y7aBbypWV744SkM9br2G-37">
          <mxGeometry relative="1" as="geometry">
            <mxPoint x="524" y="220" as="sourcePoint" />
            <mxPoint x="550" y="220" as="targetPoint" />
          </mxGeometry>
        </mxCell>
        <mxCell id="Y7aBbypWV744SkM9br2G-34" value="Dados da transportadora: Nome e telefone&amp;nbsp;" style="rounded=0;whiteSpace=wrap;html=1;" vertex="1" parent="1">
          <mxGeometry x="414" y="190" width="120" height="60" as="geometry" />
        </mxCell>
        <mxCell id="Y7aBbypWV744SkM9br2G-35" value="Sim" style="edgeStyle=orthogonalEdgeStyle;rounded=0;orthogonalLoop=1;jettySize=auto;html=1;exitX=0.5;exitY=0;exitDx=0;exitDy=0;entryX=1;entryY=0.5;entryDx=0;entryDy=0;" edge="1" parent="1" source="Y7aBbypWV744SkM9br2G-37" target="Y7aBbypWV744SkM9br2G-41">
          <mxGeometry relative="1" as="geometry">
            <mxPoint x="660" y="110" as="targetPoint" />
          </mxGeometry>
        </mxCell>
        <mxCell id="Y7aBbypWV744SkM9br2G-36" value="Não" style="edgeStyle=orthogonalEdgeStyle;rounded=0;orthogonalLoop=1;jettySize=auto;html=1;" edge="1" parent="1" source="Y7aBbypWV744SkM9br2G-37" target="Y7aBbypWV744SkM9br2G-39">
          <mxGeometry relative="1" as="geometry">
            <mxPoint x="710" y="270" as="targetPoint" />
            <Array as="points">
              <mxPoint x="600" y="260" />
              <mxPoint x="730" y="260" />
            </Array>
          </mxGeometry>
        </mxCell>
        <mxCell id="Y7aBbypWV744SkM9br2G-37" value="Dados validos?" style="rhombus;whiteSpace=wrap;html=1;" vertex="1" parent="1">
          <mxGeometry x="570" y="180" width="80" height="80" as="geometry" />
        </mxCell>
        <mxCell id="Y7aBbypWV744SkM9br2G-38" style="edgeStyle=orthogonalEdgeStyle;rounded=0;orthogonalLoop=1;jettySize=auto;html=1;entryX=0.5;entryY=1;entryDx=0;entryDy=0;exitX=1;exitY=0.5;exitDx=0;exitDy=0;" edge="1" parent="1" source="Y7aBbypWV744SkM9br2G-39" target="Y7aBbypWV744SkM9br2G-8">
          <mxGeometry relative="1" as="geometry">
            <Array as="points">
              <mxPoint x="800" y="200" />
              <mxPoint x="800" y="300" />
              <mxPoint x="330" y="300" />
            </Array>
          </mxGeometry>
        </mxCell>
        <mxCell id="Y7aBbypWV744SkM9br2G-39" value="Mostrar erro" style="rounded=0;whiteSpace=wrap;html=1;" vertex="1" parent="1">
          <mxGeometry x="670" y="170" width="120" height="60" as="geometry" />
        </mxCell>
        <mxCell id="Y7aBbypWV744SkM9br2G-40" style="edgeStyle=orthogonalEdgeStyle;rounded=0;orthogonalLoop=1;jettySize=auto;html=1;entryX=0.5;entryY=0;entryDx=0;entryDy=0;" edge="1" parent="1" source="Y7aBbypWV744SkM9br2G-41" target="Y7aBbypWV744SkM9br2G-8">
          <mxGeometry relative="1" as="geometry" />
        </mxCell>
        <mxCell id="Y7aBbypWV744SkM9br2G-41" value="Cadastro bem sucedido&amp;nbsp;" style="rounded=0;whiteSpace=wrap;html=1;" vertex="1" parent="1">
          <mxGeometry x="430" y="70" width="120" height="60" as="geometry" />
        </mxCell>
        <mxCell id="Y7aBbypWV744SkM9br2G-42" style="edgeStyle=orthogonalEdgeStyle;rounded=0;orthogonalLoop=1;jettySize=auto;html=1;entryX=0.5;entryY=0;entryDx=0;entryDy=0;" edge="1" parent="1" source="Y7aBbypWV744SkM9br2G-43" target="Y7aBbypWV744SkM9br2G-21">
          <mxGeometry relative="1" as="geometry" />
        </mxCell>
        <mxCell id="Y7aBbypWV744SkM9br2G-43" value="Transportadora" style="rounded=0;whiteSpace=wrap;html=1;" vertex="1" parent="1">
          <mxGeometry x="26.87" y="320" width="93.13" height="40" as="geometry" />
        </mxCell>
      </root>
    </mxGraphModel>
  </diagram>
  <diagram id="GkR1LWj0t4HwCYu4OwxM" name="Página-4">
    <mxGraphModel dx="1509" dy="813" grid="1" gridSize="10" guides="1" tooltips="1" connect="1" arrows="1" fold="1" page="1" pageScale="1" pageWidth="827" pageHeight="1169" math="0" shadow="0">
      <root>
        <mxCell id="0" />
        <mxCell id="1" parent="0" />
        <mxCell id="1PM9TddE2YFFiuC7Iepd-2" style="edgeStyle=orthogonalEdgeStyle;rounded=0;orthogonalLoop=1;jettySize=auto;html=1;exitX=0.5;exitY=1;exitDx=0;exitDy=0;entryX=0.5;entryY=0;entryDx=0;entryDy=0;" parent="1" source="1PM9TddE2YFFiuC7Iepd-3" target="1PM9TddE2YFFiuC7Iepd-34" edge="1">
          <mxGeometry relative="1" as="geometry" />
        </mxCell>
        <mxCell id="1PM9TddE2YFFiuC7Iepd-3" value="Lista de produto" style="rounded=0;whiteSpace=wrap;html=1;" parent="1" vertex="1">
          <mxGeometry x="200" y="15" width="120" height="50" as="geometry" />
        </mxCell>
        <mxCell id="1PM9TddE2YFFiuC7Iepd-5" value="Dados do produto; Nome e preço&amp;nbsp;" style="rounded=0;whiteSpace=wrap;html=1;" parent="1" vertex="1">
          <mxGeometry x="414" y="230" width="120" height="60" as="geometry" />
        </mxCell>
        <mxCell id="1PM9TddE2YFFiuC7Iepd-8" style="edgeStyle=orthogonalEdgeStyle;rounded=0;orthogonalLoop=1;jettySize=auto;html=1;exitX=1;exitY=0.5;exitDx=0;exitDy=0;entryX=0;entryY=0.5;entryDx=0;entryDy=0;" parent="1" source="1PM9TddE2YFFiuC7Iepd-9" target="1PM9TddE2YFFiuC7Iepd-5" edge="1">
          <mxGeometry relative="1" as="geometry" />
        </mxCell>
        <mxCell id="1PM9TddE2YFFiuC7Iepd-9" value="Cadastrar produto" style="rounded=0;whiteSpace=wrap;html=1;" parent="1" vertex="1">
          <mxGeometry x="270" y="230" width="120" height="60" as="geometry" />
        </mxCell>
        <mxCell id="1PM9TddE2YFFiuC7Iepd-14" value="Cadastro bem sucedido&amp;nbsp;" style="rounded=0;whiteSpace=wrap;html=1;" parent="1" vertex="1">
          <mxGeometry x="560" y="80" width="120" height="60" as="geometry" />
        </mxCell>
        <mxCell id="1PM9TddE2YFFiuC7Iepd-32" value="Não" style="edgeStyle=orthogonalEdgeStyle;rounded=0;orthogonalLoop=1;jettySize=auto;html=1;exitX=1;exitY=1;exitDx=0;exitDy=0;entryX=0.25;entryY=0;entryDx=0;entryDy=0;" parent="1" source="1PM9TddE2YFFiuC7Iepd-34" target="1PM9TddE2YFFiuC7Iepd-9" edge="1">
          <mxGeometry relative="1" as="geometry">
            <Array as="points">
              <mxPoint x="300" y="150" />
            </Array>
          </mxGeometry>
        </mxCell>
        <mxCell id="1PM9TddE2YFFiuC7Iepd-33" value="Sim" style="edgeStyle=orthogonalEdgeStyle;rounded=0;orthogonalLoop=1;jettySize=auto;html=1;exitX=0;exitY=1;exitDx=0;exitDy=0;entryX=1;entryY=0;entryDx=0;entryDy=0;" parent="1" target="4hozPlmE3WGvYxkeVdOi-2" edge="1">
          <mxGeometry relative="1" as="geometry">
            <Array as="points">
              <mxPoint x="240" y="150" />
              <mxPoint x="240" y="240" />
            </Array>
            <mxPoint x="250" y="150" as="sourcePoint" />
            <mxPoint x="240" y="230" as="targetPoint" />
          </mxGeometry>
        </mxCell>
        <mxCell id="1PM9TddE2YFFiuC7Iepd-34" value="Produto cadastrado?" style="rhombus;whiteSpace=wrap;html=1;" parent="1" vertex="1">
          <mxGeometry x="220" y="90" width="80" height="80" as="geometry" />
        </mxCell>
        <mxCell id="1PM9TddE2YFFiuC7Iepd-38" style="edgeStyle=orthogonalEdgeStyle;rounded=0;orthogonalLoop=1;jettySize=auto;html=1;entryX=0;entryY=0.5;entryDx=0;entryDy=0;" parent="1" source="1PM9TddE2YFFiuC7Iepd-36" target="1PM9TddE2YFFiuC7Iepd-3" edge="1">
          <mxGeometry relative="1" as="geometry" />
        </mxCell>
        <mxCell id="1PM9TddE2YFFiuC7Iepd-36" value="Inicio" style="ellipse;whiteSpace=wrap;html=1;" parent="1" vertex="1">
          <mxGeometry x="18.75" y="10" width="90" height="60" as="geometry" />
        </mxCell>
        <mxCell id="4hozPlmE3WGvYxkeVdOi-1" style="edgeStyle=orthogonalEdgeStyle;rounded=0;orthogonalLoop=1;jettySize=auto;html=1;exitX=0;exitY=0.5;exitDx=0;exitDy=0;entryX=1;entryY=0.5;entryDx=0;entryDy=0;" edge="1" parent="1" source="4hozPlmE3WGvYxkeVdOi-2" target="4hozPlmE3WGvYxkeVdOi-9">
          <mxGeometry relative="1" as="geometry">
            <mxPoint x="111.51999999999998" y="240" as="targetPoint" />
          </mxGeometry>
        </mxCell>
        <mxCell id="4hozPlmE3WGvYxkeVdOi-2" value="Procurar produto" style="rounded=0;whiteSpace=wrap;html=1;" vertex="1" parent="1">
          <mxGeometry x="131.52" y="240" width="110" height="60" as="geometry" />
        </mxCell>
        <mxCell id="4hozPlmE3WGvYxkeVdOi-3" value="Não" style="edgeStyle=orthogonalEdgeStyle;rounded=0;orthogonalLoop=1;jettySize=auto;html=1;exitX=0.5;exitY=1;exitDx=0;exitDy=0;entryX=0.5;entryY=0;entryDx=0;entryDy=0;" edge="1" parent="1" source="4hozPlmE3WGvYxkeVdOi-4" target="4hozPlmE3WGvYxkeVdOi-6">
          <mxGeometry relative="1" as="geometry" />
        </mxCell>
        <mxCell id="4hozPlmE3WGvYxkeVdOi-25" value="Sim" style="edgeStyle=orthogonalEdgeStyle;rounded=0;orthogonalLoop=1;jettySize=auto;html=1;entryX=0;entryY=0.5;entryDx=0;entryDy=0;" edge="1" parent="1" source="4hozPlmE3WGvYxkeVdOi-4" target="4hozPlmE3WGvYxkeVdOi-24">
          <mxGeometry relative="1" as="geometry" />
        </mxCell>
        <mxCell id="4hozPlmE3WGvYxkeVdOi-4" value="Dados validos?" style="rhombus;whiteSpace=wrap;html=1;" vertex="1" parent="1">
          <mxGeometry x="162.52" y="540" width="80" height="80" as="geometry" />
        </mxCell>
        <mxCell id="4hozPlmE3WGvYxkeVdOi-5" style="edgeStyle=orthogonalEdgeStyle;rounded=0;orthogonalLoop=1;jettySize=auto;html=1;exitX=0;exitY=0.25;exitDx=0;exitDy=0;entryX=0;entryY=1;entryDx=0;entryDy=0;" edge="1" parent="1" source="4hozPlmE3WGvYxkeVdOi-6" target="4hozPlmE3WGvYxkeVdOi-15">
          <mxGeometry relative="1" as="geometry">
            <Array as="points">
              <mxPoint x="155.02" y="620" />
              <mxPoint x="155.02" y="440" />
            </Array>
          </mxGeometry>
        </mxCell>
        <mxCell id="4hozPlmE3WGvYxkeVdOi-6" value="Mostrar erro" style="rounded=0;whiteSpace=wrap;html=1;" vertex="1" parent="1">
          <mxGeometry x="155.02" y="655" width="95" height="60" as="geometry" />
        </mxCell>
        <mxCell id="4hozPlmE3WGvYxkeVdOi-7" value="Sim" style="edgeStyle=orthogonalEdgeStyle;rounded=0;orthogonalLoop=1;jettySize=auto;html=1;exitX=0.5;exitY=1;exitDx=0;exitDy=0;entryX=0.5;entryY=0;entryDx=0;entryDy=0;" edge="1" parent="1" source="4hozPlmE3WGvYxkeVdOi-9" target="4hozPlmE3WGvYxkeVdOi-23">
          <mxGeometry relative="1" as="geometry" />
        </mxCell>
        <mxCell id="4hozPlmE3WGvYxkeVdOi-8" value="Não" style="edgeStyle=orthogonalEdgeStyle;rounded=0;orthogonalLoop=1;jettySize=auto;html=1;entryX=0.25;entryY=0;entryDx=0;entryDy=0;" edge="1" parent="1" source="4hozPlmE3WGvYxkeVdOi-9" target="4hozPlmE3WGvYxkeVdOi-2">
          <mxGeometry relative="1" as="geometry">
            <Array as="points">
              <mxPoint x="60.01999999999998" y="210" />
              <mxPoint x="159.02" y="210" />
            </Array>
          </mxGeometry>
        </mxCell>
        <mxCell id="4hozPlmE3WGvYxkeVdOi-9" value="Encontrou ?" style="rhombus;whiteSpace=wrap;html=1;" vertex="1" parent="1">
          <mxGeometry x="20.269999999999985" y="230" width="80" height="80" as="geometry" />
        </mxCell>
        <mxCell id="4hozPlmE3WGvYxkeVdOi-10" value="Não" style="edgeStyle=orthogonalEdgeStyle;rounded=0;orthogonalLoop=1;jettySize=auto;html=1;exitX=1;exitY=0.5;exitDx=0;exitDy=0;entryX=0;entryY=0.5;entryDx=0;entryDy=0;" edge="1" parent="1" source="4hozPlmE3WGvYxkeVdOi-12" target="4hozPlmE3WGvYxkeVdOi-15">
          <mxGeometry relative="1" as="geometry">
            <mxPoint x="116.26999999999998" y="450" as="sourcePoint" />
          </mxGeometry>
        </mxCell>
        <mxCell id="4hozPlmE3WGvYxkeVdOi-11" value="Sim" style="edgeStyle=orthogonalEdgeStyle;rounded=0;orthogonalLoop=1;jettySize=auto;html=1;" edge="1" parent="1" source="4hozPlmE3WGvYxkeVdOi-12" target="4hozPlmE3WGvYxkeVdOi-18">
          <mxGeometry relative="1" as="geometry" />
        </mxCell>
        <mxCell id="4hozPlmE3WGvYxkeVdOi-12" value="Apagar?" style="rhombus;whiteSpace=wrap;html=1;" vertex="1" parent="1">
          <mxGeometry x="32.44999999999999" y="410" width="80" height="80" as="geometry" />
        </mxCell>
        <mxCell id="4hozPlmE3WGvYxkeVdOi-13" value="Não" style="edgeStyle=orthogonalEdgeStyle;rounded=0;orthogonalLoop=1;jettySize=auto;html=1;entryX=1;entryY=0.5;entryDx=0;entryDy=0;" edge="1" parent="1" source="4hozPlmE3WGvYxkeVdOi-15" target="4hozPlmE3WGvYxkeVdOi-23">
          <mxGeometry relative="1" as="geometry">
            <Array as="points">
              <mxPoint x="203.02" y="360" />
            </Array>
            <mxPoint as="offset" />
            <mxPoint x="110.63999999999987" y="360" as="targetPoint" />
          </mxGeometry>
        </mxCell>
        <mxCell id="4hozPlmE3WGvYxkeVdOi-14" value="Sim" style="edgeStyle=orthogonalEdgeStyle;rounded=0;orthogonalLoop=1;jettySize=auto;html=1;exitX=0.5;exitY=1;exitDx=0;exitDy=0;entryX=0.5;entryY=0;entryDx=0;entryDy=0;" edge="1" parent="1" source="4hozPlmE3WGvYxkeVdOi-15" target="4hozPlmE3WGvYxkeVdOi-4">
          <mxGeometry relative="1" as="geometry" />
        </mxCell>
        <mxCell id="4hozPlmE3WGvYxkeVdOi-15" value="Atualizar?" style="rhombus;whiteSpace=wrap;html=1;" vertex="1" parent="1">
          <mxGeometry x="162.52" y="410" width="80" height="80" as="geometry" />
        </mxCell>
        <mxCell id="4hozPlmE3WGvYxkeVdOi-16" value="Sim" style="edgeStyle=orthogonalEdgeStyle;rounded=0;orthogonalLoop=1;jettySize=auto;html=1;exitX=0.5;exitY=1;exitDx=0;exitDy=0;entryX=0.5;entryY=0;entryDx=0;entryDy=0;" edge="1" parent="1" source="4hozPlmE3WGvYxkeVdOi-18" target="4hozPlmE3WGvYxkeVdOi-20">
          <mxGeometry relative="1" as="geometry" />
        </mxCell>
        <mxCell id="4hozPlmE3WGvYxkeVdOi-17" value="Não" style="edgeStyle=orthogonalEdgeStyle;rounded=0;orthogonalLoop=1;jettySize=auto;html=1;exitX=0;exitY=0;exitDx=0;exitDy=0;entryX=0;entryY=0.5;entryDx=0;entryDy=0;" edge="1" parent="1" source="4hozPlmE3WGvYxkeVdOi-18" target="4hozPlmE3WGvYxkeVdOi-23">
          <mxGeometry relative="1" as="geometry">
            <Array as="points">
              <mxPoint x="19.019999999999985" y="560" />
              <mxPoint x="19.019999999999985" y="360" />
            </Array>
          </mxGeometry>
        </mxCell>
        <mxCell id="4hozPlmE3WGvYxkeVdOi-18" value="Confirmado?" style="rhombus;whiteSpace=wrap;html=1;" vertex="1" parent="1">
          <mxGeometry x="32.44999999999999" y="540" width="80" height="80" as="geometry" />
        </mxCell>
        <mxCell id="4hozPlmE3WGvYxkeVdOi-19" style="edgeStyle=orthogonalEdgeStyle;rounded=0;orthogonalLoop=1;jettySize=auto;html=1;exitX=0;exitY=0;exitDx=0;exitDy=0;entryX=0.75;entryY=0;entryDx=0;entryDy=0;" edge="1" parent="1" source="4hozPlmE3WGvYxkeVdOi-20" target="4hozPlmE3WGvYxkeVdOi-2">
          <mxGeometry relative="1" as="geometry">
            <Array as="points">
              <mxPoint x="10.019999999999985" y="190" />
              <mxPoint x="214.02" y="190" />
            </Array>
          </mxGeometry>
        </mxCell>
        <mxCell id="4hozPlmE3WGvYxkeVdOi-20" value="Apagado com sucesso" style="rounded=0;whiteSpace=wrap;html=1;" vertex="1" parent="1">
          <mxGeometry x="22.449999999999992" y="665" width="100" height="50" as="geometry" />
        </mxCell>
        <mxCell id="4hozPlmE3WGvYxkeVdOi-22" style="edgeStyle=orthogonalEdgeStyle;rounded=0;orthogonalLoop=1;jettySize=auto;html=1;entryX=0.5;entryY=0;entryDx=0;entryDy=0;" edge="1" parent="1" source="4hozPlmE3WGvYxkeVdOi-23" target="4hozPlmE3WGvYxkeVdOi-12">
          <mxGeometry relative="1" as="geometry" />
        </mxCell>
        <mxCell id="4hozPlmE3WGvYxkeVdOi-23" value="Produto" style="rounded=0;whiteSpace=wrap;html=1;" vertex="1" parent="1">
          <mxGeometry x="25.88999999999999" y="340" width="93.13" height="40" as="geometry" />
        </mxCell>
        <mxCell id="4hozPlmE3WGvYxkeVdOi-24" value="Atualizado com sucesso" style="rounded=0;whiteSpace=wrap;html=1;" vertex="1" parent="1">
          <mxGeometry x="293.5" y="550" width="120" height="60" as="geometry" />
        </mxCell>
        <mxCell id="J-6cxiz4mLGW3xMlvSPS-1" style="edgeStyle=orthogonalEdgeStyle;rounded=0;orthogonalLoop=1;jettySize=auto;html=1;exitX=1;exitY=0.5;exitDx=0;exitDy=0;entryX=0;entryY=0.5;entryDx=0;entryDy=0;" edge="1" parent="1" target="J-6cxiz4mLGW3xMlvSPS-4">
          <mxGeometry relative="1" as="geometry">
            <mxPoint x="534" y="260" as="sourcePoint" />
            <mxPoint x="560" y="260" as="targetPoint" />
          </mxGeometry>
        </mxCell>
        <mxCell id="J-6cxiz4mLGW3xMlvSPS-2" value="Sim" style="edgeStyle=orthogonalEdgeStyle;rounded=0;orthogonalLoop=1;jettySize=auto;html=1;exitX=0.5;exitY=0;exitDx=0;exitDy=0;entryX=0.5;entryY=1;entryDx=0;entryDy=0;" edge="1" parent="1" source="J-6cxiz4mLGW3xMlvSPS-4" target="1PM9TddE2YFFiuC7Iepd-14">
          <mxGeometry relative="1" as="geometry">
            <mxPoint x="560" y="140" as="targetPoint" />
          </mxGeometry>
        </mxCell>
        <mxCell id="2U7dtq92d7LNc7XO0Vz5-1" value="Não" style="edgeStyle=orthogonalEdgeStyle;rounded=0;orthogonalLoop=1;jettySize=auto;html=1;exitX=1;exitY=0.5;exitDx=0;exitDy=0;entryX=0;entryY=0.5;entryDx=0;entryDy=0;" edge="1" parent="1" source="J-6cxiz4mLGW3xMlvSPS-4" target="J-6cxiz4mLGW3xMlvSPS-5">
          <mxGeometry relative="1" as="geometry" />
        </mxCell>
        <mxCell id="J-6cxiz4mLGW3xMlvSPS-4" value="Dados validos?" style="rhombus;whiteSpace=wrap;html=1;" vertex="1" parent="1">
          <mxGeometry x="580" y="220" width="80" height="80" as="geometry" />
        </mxCell>
        <mxCell id="MngSwNyX7twg0l6Atz7F-1" style="edgeStyle=orthogonalEdgeStyle;rounded=0;orthogonalLoop=1;jettySize=auto;html=1;entryX=0.5;entryY=1;entryDx=0;entryDy=0;" edge="1" parent="1" source="J-6cxiz4mLGW3xMlvSPS-5" target="1PM9TddE2YFFiuC7Iepd-9">
          <mxGeometry relative="1" as="geometry">
            <Array as="points">
              <mxPoint x="760" y="330" />
              <mxPoint x="330" y="330" />
            </Array>
          </mxGeometry>
        </mxCell>
        <mxCell id="J-6cxiz4mLGW3xMlvSPS-5" value="Mostrar erro" style="rounded=0;whiteSpace=wrap;html=1;" vertex="1" parent="1">
          <mxGeometry x="700" y="230" width="120" height="60" as="geometry" />
        </mxCell>
        <mxCell id="J-6cxiz4mLGW3xMlvSPS-6" style="edgeStyle=orthogonalEdgeStyle;rounded=0;orthogonalLoop=1;jettySize=auto;html=1;exitX=0;exitY=0.5;exitDx=0;exitDy=0;entryX=0.684;entryY=-0.032;entryDx=0;entryDy=0;entryPerimeter=0;" edge="1" parent="1" source="1PM9TddE2YFFiuC7Iepd-14" target="1PM9TddE2YFFiuC7Iepd-9">
          <mxGeometry relative="1" as="geometry" />
        </mxCell>
      </root>
    </mxGraphModel>
  </diagram>
  <diagram id="PVuaW44X3hlkwa4GYoFa" name="Página-3">
    <mxGraphModel dx="2868" dy="1544" grid="1" gridSize="10" guides="1" tooltips="1" connect="1" arrows="1" fold="1" page="1" pageScale="1" pageWidth="827" pageHeight="1169" math="0" shadow="0">
      <root>
        <mxCell id="0" />
        <mxCell id="1" parent="0" />
        <mxCell id="xos-ND-qnMM7a-nj62kc-19" value="SIM" style="edgeStyle=orthogonalEdgeStyle;rounded=0;orthogonalLoop=1;jettySize=auto;html=1;entryX=1;entryY=0.25;entryDx=0;entryDy=0;" parent="1" edge="1">
          <mxGeometry relative="1" as="geometry">
            <Array as="points">
              <mxPoint x="750" y="240" />
              <mxPoint x="750" y="45" />
            </Array>
            <mxPoint x="320" y="45" as="targetPoint" />
          </mxGeometry>
        </mxCell>
        <mxCell id="qi3mYivegq37M_3MbYvb-1" style="edgeStyle=orthogonalEdgeStyle;rounded=0;orthogonalLoop=1;jettySize=auto;html=1;exitX=0.5;exitY=1;exitDx=0;exitDy=0;entryX=0.5;entryY=0;entryDx=0;entryDy=0;" edge="1" parent="1" source="qi3mYivegq37M_3MbYvb-2" target="qi3mYivegq37M_3MbYvb-9">
          <mxGeometry relative="1" as="geometry" />
        </mxCell>
        <mxCell id="qi3mYivegq37M_3MbYvb-2" value="Lista de Matéria-prima" style="rounded=0;whiteSpace=wrap;html=1;" vertex="1" parent="1">
          <mxGeometry x="199" y="25" width="120" height="50" as="geometry" />
        </mxCell>
        <mxCell id="qi3mYivegq37M_3MbYvb-3" value="Dados da Matéria; Nome e unidade" style="rounded=0;whiteSpace=wrap;html=1;" vertex="1" parent="1">
          <mxGeometry x="413" y="240" width="120" height="60" as="geometry" />
        </mxCell>
        <mxCell id="qi3mYivegq37M_3MbYvb-4" style="edgeStyle=orthogonalEdgeStyle;rounded=0;orthogonalLoop=1;jettySize=auto;html=1;exitX=1;exitY=0.5;exitDx=0;exitDy=0;entryX=0;entryY=0.5;entryDx=0;entryDy=0;" edge="1" parent="1" source="qi3mYivegq37M_3MbYvb-5" target="qi3mYivegq37M_3MbYvb-3">
          <mxGeometry relative="1" as="geometry" />
        </mxCell>
        <mxCell id="qi3mYivegq37M_3MbYvb-5" value="Cadastrar matéria-prima" style="rounded=0;whiteSpace=wrap;html=1;" vertex="1" parent="1">
          <mxGeometry x="269" y="240" width="120" height="60" as="geometry" />
        </mxCell>
        <mxCell id="qi3mYivegq37M_3MbYvb-6" value="Cadastro bem sucedido&amp;nbsp;" style="rounded=0;whiteSpace=wrap;html=1;" vertex="1" parent="1">
          <mxGeometry x="559" y="90" width="120" height="60" as="geometry" />
        </mxCell>
        <mxCell id="qi3mYivegq37M_3MbYvb-7" value="Não" style="edgeStyle=orthogonalEdgeStyle;rounded=0;orthogonalLoop=1;jettySize=auto;html=1;exitX=1;exitY=1;exitDx=0;exitDy=0;entryX=0.25;entryY=0;entryDx=0;entryDy=0;" edge="1" parent="1" source="qi3mYivegq37M_3MbYvb-9" target="qi3mYivegq37M_3MbYvb-5">
          <mxGeometry relative="1" as="geometry">
            <Array as="points">
              <mxPoint x="299" y="160" />
            </Array>
          </mxGeometry>
        </mxCell>
        <mxCell id="qi3mYivegq37M_3MbYvb-8" value="Sim" style="edgeStyle=orthogonalEdgeStyle;rounded=0;orthogonalLoop=1;jettySize=auto;html=1;exitX=0;exitY=1;exitDx=0;exitDy=0;entryX=1;entryY=0;entryDx=0;entryDy=0;" edge="1" parent="1" target="qi3mYivegq37M_3MbYvb-13">
          <mxGeometry relative="1" as="geometry">
            <Array as="points">
              <mxPoint x="239" y="160" />
              <mxPoint x="239" y="250" />
            </Array>
            <mxPoint x="249" y="160" as="sourcePoint" />
            <mxPoint x="239" y="240" as="targetPoint" />
          </mxGeometry>
        </mxCell>
        <mxCell id="qi3mYivegq37M_3MbYvb-9" value="Matéria&lt;div&gt;cadastrada?&lt;/div&gt;" style="rhombus;whiteSpace=wrap;html=1;" vertex="1" parent="1">
          <mxGeometry x="219" y="100" width="80" height="80" as="geometry" />
        </mxCell>
        <mxCell id="qi3mYivegq37M_3MbYvb-10" style="edgeStyle=orthogonalEdgeStyle;rounded=0;orthogonalLoop=1;jettySize=auto;html=1;entryX=0;entryY=0.5;entryDx=0;entryDy=0;" edge="1" parent="1" source="qi3mYivegq37M_3MbYvb-11" target="qi3mYivegq37M_3MbYvb-2">
          <mxGeometry relative="1" as="geometry" />
        </mxCell>
        <mxCell id="qi3mYivegq37M_3MbYvb-11" value="Inicio" style="ellipse;whiteSpace=wrap;html=1;" vertex="1" parent="1">
          <mxGeometry x="17.75" y="20" width="90" height="60" as="geometry" />
        </mxCell>
        <mxCell id="qi3mYivegq37M_3MbYvb-12" style="edgeStyle=orthogonalEdgeStyle;rounded=0;orthogonalLoop=1;jettySize=auto;html=1;exitX=0;exitY=0.5;exitDx=0;exitDy=0;entryX=1;entryY=0.5;entryDx=0;entryDy=0;" edge="1" parent="1" source="qi3mYivegq37M_3MbYvb-13" target="qi3mYivegq37M_3MbYvb-21">
          <mxGeometry relative="1" as="geometry">
            <mxPoint x="110.51999999999998" y="250" as="targetPoint" />
          </mxGeometry>
        </mxCell>
        <mxCell id="qi3mYivegq37M_3MbYvb-13" value="Procurar matéria-prima" style="rounded=0;whiteSpace=wrap;html=1;" vertex="1" parent="1">
          <mxGeometry x="130.52" y="250" width="110" height="60" as="geometry" />
        </mxCell>
        <mxCell id="qi3mYivegq37M_3MbYvb-14" value="Não" style="edgeStyle=orthogonalEdgeStyle;rounded=0;orthogonalLoop=1;jettySize=auto;html=1;exitX=0.5;exitY=1;exitDx=0;exitDy=0;entryX=0.5;entryY=0;entryDx=0;entryDy=0;" edge="1" parent="1" source="qi3mYivegq37M_3MbYvb-16" target="qi3mYivegq37M_3MbYvb-18">
          <mxGeometry relative="1" as="geometry" />
        </mxCell>
        <mxCell id="qi3mYivegq37M_3MbYvb-15" value="Sim" style="edgeStyle=orthogonalEdgeStyle;rounded=0;orthogonalLoop=1;jettySize=auto;html=1;entryX=0;entryY=0.5;entryDx=0;entryDy=0;" edge="1" parent="1" source="qi3mYivegq37M_3MbYvb-16" target="qi3mYivegq37M_3MbYvb-35">
          <mxGeometry relative="1" as="geometry" />
        </mxCell>
        <mxCell id="qi3mYivegq37M_3MbYvb-16" value="Dados validos?" style="rhombus;whiteSpace=wrap;html=1;" vertex="1" parent="1">
          <mxGeometry x="161.52" y="550" width="80" height="80" as="geometry" />
        </mxCell>
        <mxCell id="qi3mYivegq37M_3MbYvb-17" style="edgeStyle=orthogonalEdgeStyle;rounded=0;orthogonalLoop=1;jettySize=auto;html=1;exitX=0;exitY=0.25;exitDx=0;exitDy=0;entryX=0;entryY=1;entryDx=0;entryDy=0;" edge="1" parent="1" source="qi3mYivegq37M_3MbYvb-18" target="qi3mYivegq37M_3MbYvb-27">
          <mxGeometry relative="1" as="geometry">
            <Array as="points">
              <mxPoint x="154.02" y="630" />
              <mxPoint x="154.02" y="450" />
            </Array>
          </mxGeometry>
        </mxCell>
        <mxCell id="qi3mYivegq37M_3MbYvb-18" value="Mostrar erro" style="rounded=0;whiteSpace=wrap;html=1;" vertex="1" parent="1">
          <mxGeometry x="154.02" y="665" width="95" height="60" as="geometry" />
        </mxCell>
        <mxCell id="qi3mYivegq37M_3MbYvb-19" value="Sim" style="edgeStyle=orthogonalEdgeStyle;rounded=0;orthogonalLoop=1;jettySize=auto;html=1;exitX=0.5;exitY=1;exitDx=0;exitDy=0;entryX=0.5;entryY=0;entryDx=0;entryDy=0;" edge="1" parent="1" source="qi3mYivegq37M_3MbYvb-21" target="qi3mYivegq37M_3MbYvb-34">
          <mxGeometry relative="1" as="geometry" />
        </mxCell>
        <mxCell id="qi3mYivegq37M_3MbYvb-20" value="Não" style="edgeStyle=orthogonalEdgeStyle;rounded=0;orthogonalLoop=1;jettySize=auto;html=1;entryX=0.25;entryY=0;entryDx=0;entryDy=0;" edge="1" parent="1" source="qi3mYivegq37M_3MbYvb-21" target="qi3mYivegq37M_3MbYvb-13">
          <mxGeometry relative="1" as="geometry">
            <Array as="points">
              <mxPoint x="59.01999999999998" y="220" />
              <mxPoint x="158.02" y="220" />
            </Array>
          </mxGeometry>
        </mxCell>
        <mxCell id="qi3mYivegq37M_3MbYvb-21" value="Encontrou ?" style="rhombus;whiteSpace=wrap;html=1;" vertex="1" parent="1">
          <mxGeometry x="19.269999999999985" y="240" width="80" height="80" as="geometry" />
        </mxCell>
        <mxCell id="qi3mYivegq37M_3MbYvb-22" value="Não" style="edgeStyle=orthogonalEdgeStyle;rounded=0;orthogonalLoop=1;jettySize=auto;html=1;exitX=1;exitY=0.5;exitDx=0;exitDy=0;entryX=0;entryY=0.5;entryDx=0;entryDy=0;" edge="1" parent="1" source="qi3mYivegq37M_3MbYvb-24" target="qi3mYivegq37M_3MbYvb-27">
          <mxGeometry relative="1" as="geometry">
            <mxPoint x="115.26999999999998" y="460" as="sourcePoint" />
          </mxGeometry>
        </mxCell>
        <mxCell id="qi3mYivegq37M_3MbYvb-23" value="Sim" style="edgeStyle=orthogonalEdgeStyle;rounded=0;orthogonalLoop=1;jettySize=auto;html=1;" edge="1" parent="1" source="qi3mYivegq37M_3MbYvb-24" target="qi3mYivegq37M_3MbYvb-30">
          <mxGeometry relative="1" as="geometry" />
        </mxCell>
        <mxCell id="qi3mYivegq37M_3MbYvb-24" value="Apagar?" style="rhombus;whiteSpace=wrap;html=1;" vertex="1" parent="1">
          <mxGeometry x="31.44999999999999" y="420" width="80" height="80" as="geometry" />
        </mxCell>
        <mxCell id="qi3mYivegq37M_3MbYvb-25" value="Não" style="edgeStyle=orthogonalEdgeStyle;rounded=0;orthogonalLoop=1;jettySize=auto;html=1;entryX=1;entryY=0.5;entryDx=0;entryDy=0;" edge="1" parent="1" source="qi3mYivegq37M_3MbYvb-27" target="qi3mYivegq37M_3MbYvb-34">
          <mxGeometry relative="1" as="geometry">
            <Array as="points">
              <mxPoint x="202.02" y="370" />
            </Array>
            <mxPoint as="offset" />
            <mxPoint x="109.63999999999987" y="370" as="targetPoint" />
          </mxGeometry>
        </mxCell>
        <mxCell id="qi3mYivegq37M_3MbYvb-26" value="Sim" style="edgeStyle=orthogonalEdgeStyle;rounded=0;orthogonalLoop=1;jettySize=auto;html=1;exitX=0.5;exitY=1;exitDx=0;exitDy=0;entryX=0.5;entryY=0;entryDx=0;entryDy=0;" edge="1" parent="1" source="qi3mYivegq37M_3MbYvb-27" target="qi3mYivegq37M_3MbYvb-16">
          <mxGeometry relative="1" as="geometry" />
        </mxCell>
        <mxCell id="qi3mYivegq37M_3MbYvb-27" value="Atualizar?" style="rhombus;whiteSpace=wrap;html=1;" vertex="1" parent="1">
          <mxGeometry x="161.52" y="420" width="80" height="80" as="geometry" />
        </mxCell>
        <mxCell id="qi3mYivegq37M_3MbYvb-28" value="Sim" style="edgeStyle=orthogonalEdgeStyle;rounded=0;orthogonalLoop=1;jettySize=auto;html=1;exitX=0.5;exitY=1;exitDx=0;exitDy=0;entryX=0.5;entryY=0;entryDx=0;entryDy=0;" edge="1" parent="1" source="qi3mYivegq37M_3MbYvb-30" target="qi3mYivegq37M_3MbYvb-32">
          <mxGeometry relative="1" as="geometry" />
        </mxCell>
        <mxCell id="qi3mYivegq37M_3MbYvb-29" value="Não" style="edgeStyle=orthogonalEdgeStyle;rounded=0;orthogonalLoop=1;jettySize=auto;html=1;exitX=0;exitY=0;exitDx=0;exitDy=0;entryX=0;entryY=0.5;entryDx=0;entryDy=0;" edge="1" parent="1" source="qi3mYivegq37M_3MbYvb-30" target="qi3mYivegq37M_3MbYvb-34">
          <mxGeometry relative="1" as="geometry">
            <Array as="points">
              <mxPoint x="18.019999999999985" y="570" />
              <mxPoint x="18.019999999999985" y="370" />
            </Array>
          </mxGeometry>
        </mxCell>
        <mxCell id="qi3mYivegq37M_3MbYvb-30" value="Confirmado?" style="rhombus;whiteSpace=wrap;html=1;" vertex="1" parent="1">
          <mxGeometry x="31.44999999999999" y="550" width="80" height="80" as="geometry" />
        </mxCell>
        <mxCell id="qi3mYivegq37M_3MbYvb-31" style="edgeStyle=orthogonalEdgeStyle;rounded=0;orthogonalLoop=1;jettySize=auto;html=1;exitX=0;exitY=0;exitDx=0;exitDy=0;entryX=0.75;entryY=0;entryDx=0;entryDy=0;" edge="1" parent="1" source="qi3mYivegq37M_3MbYvb-32" target="qi3mYivegq37M_3MbYvb-13">
          <mxGeometry relative="1" as="geometry">
            <Array as="points">
              <mxPoint x="9.019999999999985" y="200" />
              <mxPoint x="213.02" y="200" />
            </Array>
          </mxGeometry>
        </mxCell>
        <mxCell id="qi3mYivegq37M_3MbYvb-32" value="Apagado com sucesso" style="rounded=0;whiteSpace=wrap;html=1;" vertex="1" parent="1">
          <mxGeometry x="21.449999999999992" y="675" width="100" height="50" as="geometry" />
        </mxCell>
        <mxCell id="qi3mYivegq37M_3MbYvb-33" style="edgeStyle=orthogonalEdgeStyle;rounded=0;orthogonalLoop=1;jettySize=auto;html=1;entryX=0.5;entryY=0;entryDx=0;entryDy=0;" edge="1" parent="1" source="qi3mYivegq37M_3MbYvb-34" target="qi3mYivegq37M_3MbYvb-24">
          <mxGeometry relative="1" as="geometry" />
        </mxCell>
        <mxCell id="qi3mYivegq37M_3MbYvb-34" value="Matéria-prima" style="rounded=0;whiteSpace=wrap;html=1;" vertex="1" parent="1">
          <mxGeometry x="24.88999999999999" y="350" width="93.13" height="40" as="geometry" />
        </mxCell>
        <mxCell id="qi3mYivegq37M_3MbYvb-35" value="Atualizado com sucesso" style="rounded=0;whiteSpace=wrap;html=1;" vertex="1" parent="1">
          <mxGeometry x="292.5" y="560" width="120" height="60" as="geometry" />
        </mxCell>
        <mxCell id="qi3mYivegq37M_3MbYvb-36" style="edgeStyle=orthogonalEdgeStyle;rounded=0;orthogonalLoop=1;jettySize=auto;html=1;exitX=1;exitY=0.5;exitDx=0;exitDy=0;entryX=0;entryY=0.5;entryDx=0;entryDy=0;" edge="1" parent="1" target="qi3mYivegq37M_3MbYvb-39">
          <mxGeometry relative="1" as="geometry">
            <mxPoint x="533" y="270" as="sourcePoint" />
            <mxPoint x="559" y="270" as="targetPoint" />
          </mxGeometry>
        </mxCell>
        <mxCell id="qi3mYivegq37M_3MbYvb-37" value="Sim" style="edgeStyle=orthogonalEdgeStyle;rounded=0;orthogonalLoop=1;jettySize=auto;html=1;exitX=0.5;exitY=0;exitDx=0;exitDy=0;entryX=0.5;entryY=1;entryDx=0;entryDy=0;" edge="1" parent="1" source="qi3mYivegq37M_3MbYvb-39" target="qi3mYivegq37M_3MbYvb-6">
          <mxGeometry relative="1" as="geometry">
            <mxPoint x="559" y="150" as="targetPoint" />
          </mxGeometry>
        </mxCell>
        <mxCell id="qi3mYivegq37M_3MbYvb-38" value="Não" style="edgeStyle=orthogonalEdgeStyle;rounded=0;orthogonalLoop=1;jettySize=auto;html=1;exitX=1;exitY=0.5;exitDx=0;exitDy=0;entryX=0;entryY=0.5;entryDx=0;entryDy=0;" edge="1" parent="1" source="qi3mYivegq37M_3MbYvb-39" target="qi3mYivegq37M_3MbYvb-41">
          <mxGeometry relative="1" as="geometry" />
        </mxCell>
        <mxCell id="qi3mYivegq37M_3MbYvb-39" value="Dados validos?" style="rhombus;whiteSpace=wrap;html=1;" vertex="1" parent="1">
          <mxGeometry x="579" y="230" width="80" height="80" as="geometry" />
        </mxCell>
        <mxCell id="qi3mYivegq37M_3MbYvb-40" style="edgeStyle=orthogonalEdgeStyle;rounded=0;orthogonalLoop=1;jettySize=auto;html=1;entryX=0.5;entryY=1;entryDx=0;entryDy=0;" edge="1" parent="1" source="qi3mYivegq37M_3MbYvb-41" target="qi3mYivegq37M_3MbYvb-5">
          <mxGeometry relative="1" as="geometry">
            <Array as="points">
              <mxPoint x="759" y="340" />
              <mxPoint x="329" y="340" />
            </Array>
          </mxGeometry>
        </mxCell>
        <mxCell id="qi3mYivegq37M_3MbYvb-41" value="Mostrar erro" style="rounded=0;whiteSpace=wrap;html=1;" vertex="1" parent="1">
          <mxGeometry x="699" y="240" width="120" height="60" as="geometry" />
        </mxCell>
        <mxCell id="qi3mYivegq37M_3MbYvb-42" style="edgeStyle=orthogonalEdgeStyle;rounded=0;orthogonalLoop=1;jettySize=auto;html=1;exitX=0;exitY=0.5;exitDx=0;exitDy=0;entryX=0.684;entryY=-0.032;entryDx=0;entryDy=0;entryPerimeter=0;" edge="1" parent="1" source="qi3mYivegq37M_3MbYvb-6" target="qi3mYivegq37M_3MbYvb-5">
          <mxGeometry relative="1" as="geometry" />
        </mxCell>
      </root>
    </mxGraphModel>
  </diagram>
  <diagram id="6r-yrxZw618Qfy9c-iok" name="Página-6">
    <mxGraphModel dx="1050" dy="591" grid="1" gridSize="10" guides="1" tooltips="1" connect="1" arrows="1" fold="1" page="1" pageScale="1" pageWidth="827" pageHeight="1169" math="0" shadow="0">
      <root>
        <mxCell id="0" />
        <mxCell id="1" parent="0" />
        <mxCell id="5TC7BSzx5Y8MWsCTJYPs-1" style="edgeStyle=orthogonalEdgeStyle;rounded=0;orthogonalLoop=1;jettySize=auto;html=1;exitX=1;exitY=0.5;exitDx=0;exitDy=0;" parent="1" source="5TC7BSzx5Y8MWsCTJYPs-2" target="5TC7BSzx5Y8MWsCTJYPs-4" edge="1">
          <mxGeometry relative="1" as="geometry" />
        </mxCell>
        <mxCell id="5TC7BSzx5Y8MWsCTJYPs-2" value="Inicio" style="ellipse;whiteSpace=wrap;html=1;" parent="1" vertex="1">
          <mxGeometry x="21.25" y="5" width="100" height="70" as="geometry" />
        </mxCell>
        <mxCell id="5TC7BSzx5Y8MWsCTJYPs-3" style="edgeStyle=orthogonalEdgeStyle;rounded=0;orthogonalLoop=1;jettySize=auto;html=1;exitX=0.5;exitY=1;exitDx=0;exitDy=0;entryX=0.5;entryY=0;entryDx=0;entryDy=0;" parent="1" source="5TC7BSzx5Y8MWsCTJYPs-4" target="5TC7BSzx5Y8MWsCTJYPs-41" edge="1">
          <mxGeometry relative="1" as="geometry" />
        </mxCell>
        <mxCell id="5TC7BSzx5Y8MWsCTJYPs-4" value="Lista de pedidos" style="rounded=0;whiteSpace=wrap;html=1;" parent="1" vertex="1">
          <mxGeometry x="200" y="10" width="120" height="60" as="geometry" />
        </mxCell>
        <mxCell id="5TC7BSzx5Y8MWsCTJYPs-5" style="edgeStyle=orthogonalEdgeStyle;rounded=0;orthogonalLoop=1;jettySize=auto;html=1;exitX=1;exitY=0.5;exitDx=0;exitDy=0;entryX=0;entryY=0.5;entryDx=0;entryDy=0;" parent="1" source="5TC7BSzx5Y8MWsCTJYPs-6" target="5TC7BSzx5Y8MWsCTJYPs-9" edge="1">
          <mxGeometry relative="1" as="geometry" />
        </mxCell>
        <mxCell id="5TC7BSzx5Y8MWsCTJYPs-6" value="Dados do pedido: Código do cliente, quantidade, frete, desconto, total e prazo" style="rounded=0;whiteSpace=wrap;html=1;" parent="1" vertex="1">
          <mxGeometry x="414" y="200" width="156" height="60" as="geometry" />
        </mxCell>
        <mxCell id="5TC7BSzx5Y8MWsCTJYPs-7" value="Sim" style="edgeStyle=orthogonalEdgeStyle;rounded=0;orthogonalLoop=1;jettySize=auto;html=1;exitX=0.5;exitY=0;exitDx=0;exitDy=0;entryX=1;entryY=0.5;entryDx=0;entryDy=0;" parent="1" source="5TC7BSzx5Y8MWsCTJYPs-9" target="5TC7BSzx5Y8MWsCTJYPs-20" edge="1">
          <mxGeometry relative="1" as="geometry">
            <mxPoint x="650" y="120" as="targetPoint" />
          </mxGeometry>
        </mxCell>
        <mxCell id="5TC7BSzx5Y8MWsCTJYPs-8" value="Não" style="edgeStyle=orthogonalEdgeStyle;rounded=0;orthogonalLoop=1;jettySize=auto;html=1;" parent="1" source="5TC7BSzx5Y8MWsCTJYPs-9" target="5TC7BSzx5Y8MWsCTJYPs-18" edge="1">
          <mxGeometry relative="1" as="geometry">
            <mxPoint x="700" y="280" as="targetPoint" />
            <Array as="points">
              <mxPoint x="590" y="270" />
              <mxPoint x="720" y="270" />
            </Array>
          </mxGeometry>
        </mxCell>
        <mxCell id="5TC7BSzx5Y8MWsCTJYPs-9" value="Dados validos?" style="rhombus;whiteSpace=wrap;html=1;" parent="1" vertex="1">
          <mxGeometry x="590" y="190" width="80" height="80" as="geometry" />
        </mxCell>
        <mxCell id="5TC7BSzx5Y8MWsCTJYPs-10" style="edgeStyle=orthogonalEdgeStyle;rounded=0;orthogonalLoop=1;jettySize=auto;html=1;exitX=0;exitY=0.5;exitDx=0;exitDy=0;entryX=1;entryY=0.5;entryDx=0;entryDy=0;" parent="1" source="5TC7BSzx5Y8MWsCTJYPs-11" target="5TC7BSzx5Y8MWsCTJYPs-27" edge="1">
          <mxGeometry relative="1" as="geometry">
            <mxPoint x="112.5" y="210" as="targetPoint" />
          </mxGeometry>
        </mxCell>
        <mxCell id="5TC7BSzx5Y8MWsCTJYPs-11" value="Procurar pedido" style="rounded=0;whiteSpace=wrap;html=1;" parent="1" vertex="1">
          <mxGeometry x="132.5" y="210" width="110" height="60" as="geometry" />
        </mxCell>
        <mxCell id="5TC7BSzx5Y8MWsCTJYPs-12" style="edgeStyle=orthogonalEdgeStyle;rounded=0;orthogonalLoop=1;jettySize=auto;html=1;exitX=1;exitY=0.5;exitDx=0;exitDy=0;entryX=0;entryY=0.5;entryDx=0;entryDy=0;" parent="1" source="5TC7BSzx5Y8MWsCTJYPs-13" target="5TC7BSzx5Y8MWsCTJYPs-6" edge="1">
          <mxGeometry relative="1" as="geometry" />
        </mxCell>
        <mxCell id="5TC7BSzx5Y8MWsCTJYPs-13" value="Cadastrar pedido" style="rounded=0;whiteSpace=wrap;html=1;" parent="1" vertex="1">
          <mxGeometry x="260" y="200" width="120" height="60" as="geometry" />
        </mxCell>
        <mxCell id="5TC7BSzx5Y8MWsCTJYPs-14" value="Não" style="edgeStyle=orthogonalEdgeStyle;rounded=0;orthogonalLoop=1;jettySize=auto;html=1;exitX=0.5;exitY=1;exitDx=0;exitDy=0;entryX=0.5;entryY=0;entryDx=0;entryDy=0;" parent="1" source="5TC7BSzx5Y8MWsCTJYPs-16" target="5TC7BSzx5Y8MWsCTJYPs-22" edge="1">
          <mxGeometry relative="1" as="geometry" />
        </mxCell>
        <mxCell id="5TC7BSzx5Y8MWsCTJYPs-15" value="Sim" style="edgeStyle=orthogonalEdgeStyle;rounded=0;orthogonalLoop=1;jettySize=auto;html=1;exitX=1;exitY=0.5;exitDx=0;exitDy=0;entryX=0;entryY=0.5;entryDx=0;entryDy=0;" parent="1" source="5TC7BSzx5Y8MWsCTJYPs-16" target="5TC7BSzx5Y8MWsCTJYPs-24" edge="1">
          <mxGeometry relative="1" as="geometry" />
        </mxCell>
        <mxCell id="5TC7BSzx5Y8MWsCTJYPs-16" value="Dados validos?" style="rhombus;whiteSpace=wrap;html=1;" parent="1" vertex="1">
          <mxGeometry x="147.5" y="440" width="80" height="80" as="geometry" />
        </mxCell>
        <mxCell id="5TC7BSzx5Y8MWsCTJYPs-17" style="edgeStyle=orthogonalEdgeStyle;rounded=0;orthogonalLoop=1;jettySize=auto;html=1;exitX=1;exitY=0.5;exitDx=0;exitDy=0;entryX=0.5;entryY=1;entryDx=0;entryDy=0;" parent="1" source="5TC7BSzx5Y8MWsCTJYPs-18" target="5TC7BSzx5Y8MWsCTJYPs-13" edge="1">
          <mxGeometry relative="1" as="geometry">
            <Array as="points">
              <mxPoint x="780" y="230" />
              <mxPoint x="780" y="210" />
              <mxPoint x="810" y="210" />
              <mxPoint x="810" y="280" />
              <mxPoint x="320" y="280" />
            </Array>
          </mxGeometry>
        </mxCell>
        <mxCell id="5TC7BSzx5Y8MWsCTJYPs-18" value="Mostrar erro" style="rounded=0;whiteSpace=wrap;html=1;" parent="1" vertex="1">
          <mxGeometry x="680" y="200" width="120" height="60" as="geometry" />
        </mxCell>
        <mxCell id="5TC7BSzx5Y8MWsCTJYPs-19" style="edgeStyle=orthogonalEdgeStyle;rounded=0;orthogonalLoop=1;jettySize=auto;html=1;exitX=0;exitY=0.5;exitDx=0;exitDy=0;entryX=0.75;entryY=0;entryDx=0;entryDy=0;" parent="1" source="5TC7BSzx5Y8MWsCTJYPs-20" target="5TC7BSzx5Y8MWsCTJYPs-13" edge="1">
          <mxGeometry relative="1" as="geometry" />
        </mxCell>
        <mxCell id="5TC7BSzx5Y8MWsCTJYPs-20" value="Cadastro bem sucedido&amp;nbsp;" style="rounded=0;whiteSpace=wrap;html=1;" parent="1" vertex="1">
          <mxGeometry x="414" y="100" width="120" height="60" as="geometry" />
        </mxCell>
        <mxCell id="5TC7BSzx5Y8MWsCTJYPs-21" style="edgeStyle=orthogonalEdgeStyle;rounded=0;orthogonalLoop=1;jettySize=auto;html=1;exitX=0;exitY=0.25;exitDx=0;exitDy=0;entryX=0;entryY=1;entryDx=0;entryDy=0;" parent="1" source="5TC7BSzx5Y8MWsCTJYPs-22" target="5TC7BSzx5Y8MWsCTJYPs-33" edge="1">
          <mxGeometry relative="1" as="geometry">
            <Array as="points">
              <mxPoint x="140" y="520" />
              <mxPoint x="140" y="340" />
            </Array>
          </mxGeometry>
        </mxCell>
        <mxCell id="5TC7BSzx5Y8MWsCTJYPs-22" value="Mostrar erro" style="rounded=0;whiteSpace=wrap;html=1;" parent="1" vertex="1">
          <mxGeometry x="140" y="555" width="95" height="60" as="geometry" />
        </mxCell>
        <mxCell id="5TC7BSzx5Y8MWsCTJYPs-23" style="edgeStyle=orthogonalEdgeStyle;rounded=0;orthogonalLoop=1;jettySize=auto;html=1;exitX=0;exitY=0;exitDx=0;exitDy=0;entryX=1;entryY=1;entryDx=0;entryDy=0;" parent="1" source="5TC7BSzx5Y8MWsCTJYPs-24" target="5TC7BSzx5Y8MWsCTJYPs-11" edge="1">
          <mxGeometry relative="1" as="geometry">
            <Array as="points">
              <mxPoint x="243" y="450" />
              <mxPoint x="243" y="360" />
            </Array>
          </mxGeometry>
        </mxCell>
        <mxCell id="5TC7BSzx5Y8MWsCTJYPs-24" value="Atualizado com sucesso" style="rounded=0;whiteSpace=wrap;html=1;" parent="1" vertex="1">
          <mxGeometry x="270" y="450" width="120" height="60" as="geometry" />
        </mxCell>
        <mxCell id="5TC7BSzx5Y8MWsCTJYPs-25" value="Sim" style="edgeStyle=orthogonalEdgeStyle;rounded=0;orthogonalLoop=1;jettySize=auto;html=1;exitX=0.5;exitY=1;exitDx=0;exitDy=0;entryX=0.5;entryY=0;entryDx=0;entryDy=0;" parent="1" source="5TC7BSzx5Y8MWsCTJYPs-27" target="5TC7BSzx5Y8MWsCTJYPs-30" edge="1">
          <mxGeometry relative="1" as="geometry" />
        </mxCell>
        <mxCell id="5TC7BSzx5Y8MWsCTJYPs-26" value="Não" style="edgeStyle=orthogonalEdgeStyle;rounded=0;orthogonalLoop=1;jettySize=auto;html=1;entryX=0.25;entryY=0;entryDx=0;entryDy=0;" parent="1" source="5TC7BSzx5Y8MWsCTJYPs-27" target="5TC7BSzx5Y8MWsCTJYPs-11" edge="1">
          <mxGeometry relative="1" as="geometry">
            <Array as="points">
              <mxPoint x="61" y="180" />
              <mxPoint x="160" y="180" />
            </Array>
          </mxGeometry>
        </mxCell>
        <mxCell id="5TC7BSzx5Y8MWsCTJYPs-27" value="Encontrou?" style="rhombus;whiteSpace=wrap;html=1;" parent="1" vertex="1">
          <mxGeometry x="21.25" y="200" width="80" height="80" as="geometry" />
        </mxCell>
        <mxCell id="5TC7BSzx5Y8MWsCTJYPs-28" value="Não" style="edgeStyle=orthogonalEdgeStyle;rounded=0;orthogonalLoop=1;jettySize=auto;html=1;exitX=1;exitY=0.5;exitDx=0;exitDy=0;entryX=0;entryY=0.5;entryDx=0;entryDy=0;" parent="1" source="5TC7BSzx5Y8MWsCTJYPs-30" target="5TC7BSzx5Y8MWsCTJYPs-33" edge="1">
          <mxGeometry relative="1" as="geometry" />
        </mxCell>
        <mxCell id="5TC7BSzx5Y8MWsCTJYPs-29" value="Sim" style="edgeStyle=orthogonalEdgeStyle;rounded=0;orthogonalLoop=1;jettySize=auto;html=1;" parent="1" source="5TC7BSzx5Y8MWsCTJYPs-30" target="5TC7BSzx5Y8MWsCTJYPs-36" edge="1">
          <mxGeometry relative="1" as="geometry" />
        </mxCell>
        <mxCell id="5TC7BSzx5Y8MWsCTJYPs-30" value="Apagar?" style="rhombus;whiteSpace=wrap;html=1;" parent="1" vertex="1">
          <mxGeometry x="21.25" y="310" width="80" height="80" as="geometry" />
        </mxCell>
        <mxCell id="5TC7BSzx5Y8MWsCTJYPs-31" value="Não" style="edgeStyle=orthogonalEdgeStyle;rounded=0;orthogonalLoop=1;jettySize=auto;html=1;entryX=0.5;entryY=1;entryDx=0;entryDy=0;" parent="1" source="5TC7BSzx5Y8MWsCTJYPs-33" target="5TC7BSzx5Y8MWsCTJYPs-11" edge="1">
          <mxGeometry relative="1" as="geometry" />
        </mxCell>
        <mxCell id="5TC7BSzx5Y8MWsCTJYPs-32" value="Sim" style="edgeStyle=orthogonalEdgeStyle;rounded=0;orthogonalLoop=1;jettySize=auto;html=1;exitX=0.5;exitY=1;exitDx=0;exitDy=0;entryX=0.5;entryY=0;entryDx=0;entryDy=0;" parent="1" source="5TC7BSzx5Y8MWsCTJYPs-33" target="5TC7BSzx5Y8MWsCTJYPs-16" edge="1">
          <mxGeometry relative="1" as="geometry" />
        </mxCell>
        <mxCell id="5TC7BSzx5Y8MWsCTJYPs-33" value="Atualizar?" style="rhombus;whiteSpace=wrap;html=1;" parent="1" vertex="1">
          <mxGeometry x="147.5" y="310" width="80" height="80" as="geometry" />
        </mxCell>
        <mxCell id="5TC7BSzx5Y8MWsCTJYPs-34" value="Sim" style="edgeStyle=orthogonalEdgeStyle;rounded=0;orthogonalLoop=1;jettySize=auto;html=1;exitX=0.5;exitY=1;exitDx=0;exitDy=0;entryX=0.5;entryY=0;entryDx=0;entryDy=0;" parent="1" source="5TC7BSzx5Y8MWsCTJYPs-36" target="5TC7BSzx5Y8MWsCTJYPs-38" edge="1">
          <mxGeometry relative="1" as="geometry" />
        </mxCell>
        <mxCell id="5TC7BSzx5Y8MWsCTJYPs-35" value="Não" style="edgeStyle=orthogonalEdgeStyle;rounded=0;orthogonalLoop=1;jettySize=auto;html=1;exitX=0;exitY=0;exitDx=0;exitDy=0;entryX=0.5;entryY=0;entryDx=0;entryDy=0;" parent="1" source="5TC7BSzx5Y8MWsCTJYPs-36" target="5TC7BSzx5Y8MWsCTJYPs-11" edge="1">
          <mxGeometry relative="1" as="geometry">
            <Array as="points">
              <mxPoint x="20" y="460" />
              <mxPoint x="20" y="170" />
              <mxPoint x="188" y="170" />
            </Array>
          </mxGeometry>
        </mxCell>
        <mxCell id="5TC7BSzx5Y8MWsCTJYPs-36" value="Confirmado?" style="rhombus;whiteSpace=wrap;html=1;" parent="1" vertex="1">
          <mxGeometry x="21.25" y="440" width="80" height="80" as="geometry" />
        </mxCell>
        <mxCell id="5TC7BSzx5Y8MWsCTJYPs-37" style="edgeStyle=orthogonalEdgeStyle;rounded=0;orthogonalLoop=1;jettySize=auto;html=1;exitX=0;exitY=0;exitDx=0;exitDy=0;entryX=0.75;entryY=0;entryDx=0;entryDy=0;" parent="1" source="5TC7BSzx5Y8MWsCTJYPs-38" target="5TC7BSzx5Y8MWsCTJYPs-11" edge="1">
          <mxGeometry relative="1" as="geometry">
            <Array as="points">
              <mxPoint x="11" y="160" />
              <mxPoint x="215" y="160" />
            </Array>
          </mxGeometry>
        </mxCell>
        <mxCell id="5TC7BSzx5Y8MWsCTJYPs-38" value="Apagado com sucesso" style="rounded=0;whiteSpace=wrap;html=1;" parent="1" vertex="1">
          <mxGeometry x="11.25" y="565" width="100" height="50" as="geometry" />
        </mxCell>
        <mxCell id="5TC7BSzx5Y8MWsCTJYPs-39" value="Não" style="edgeStyle=orthogonalEdgeStyle;rounded=0;orthogonalLoop=1;jettySize=auto;html=1;exitX=1;exitY=1;exitDx=0;exitDy=0;entryX=0.25;entryY=0;entryDx=0;entryDy=0;" parent="1" source="5TC7BSzx5Y8MWsCTJYPs-41" target="5TC7BSzx5Y8MWsCTJYPs-13" edge="1">
          <mxGeometry relative="1" as="geometry" />
        </mxCell>
        <mxCell id="5TC7BSzx5Y8MWsCTJYPs-40" value="Sim" style="edgeStyle=orthogonalEdgeStyle;rounded=0;orthogonalLoop=1;jettySize=auto;html=1;exitX=0;exitY=1;exitDx=0;exitDy=0;entryX=1;entryY=0;entryDx=0;entryDy=0;" parent="1" source="5TC7BSzx5Y8MWsCTJYPs-41" target="5TC7BSzx5Y8MWsCTJYPs-11" edge="1">
          <mxGeometry relative="1" as="geometry" />
        </mxCell>
        <mxCell id="5TC7BSzx5Y8MWsCTJYPs-41" value="Pedido cadastrado?" style="rhombus;whiteSpace=wrap;html=1;" parent="1" vertex="1">
          <mxGeometry x="220" y="90" width="80" height="80" as="geometry" />
        </mxCell>
      </root>
    </mxGraphModel>
  </diagram>
  <diagram id="nrkKqJ_EtDD_-eGyIKSX" name="Página-7">
    <mxGraphModel dx="1434" dy="772" grid="1" gridSize="10" guides="1" tooltips="1" connect="1" arrows="1" fold="1" page="1" pageScale="1" pageWidth="827" pageHeight="1169" math="0" shadow="0">
      <root>
        <mxCell id="0" />
        <mxCell id="1" parent="0" />
        <mxCell id="Sby5KGzEPxQ1rR62DNNa-1" style="edgeStyle=orthogonalEdgeStyle;rounded=0;orthogonalLoop=1;jettySize=auto;html=1;exitX=1;exitY=0.5;exitDx=0;exitDy=0;" edge="1" parent="1" source="Sby5KGzEPxQ1rR62DNNa-2" target="Sby5KGzEPxQ1rR62DNNa-4">
          <mxGeometry relative="1" as="geometry" />
        </mxCell>
        <mxCell id="Sby5KGzEPxQ1rR62DNNa-2" value="Inicio" style="ellipse;whiteSpace=wrap;html=1;" vertex="1" parent="1">
          <mxGeometry x="29.25" y="20" width="110" height="70" as="geometry" />
        </mxCell>
        <mxCell id="Sby5KGzEPxQ1rR62DNNa-3" style="edgeStyle=orthogonalEdgeStyle;rounded=0;orthogonalLoop=1;jettySize=auto;html=1;entryX=0.5;entryY=0;entryDx=0;entryDy=0;" edge="1" parent="1" source="Sby5KGzEPxQ1rR62DNNa-4" target="Sby5KGzEPxQ1rR62DNNa-40">
          <mxGeometry relative="1" as="geometry" />
        </mxCell>
        <mxCell id="Sby5KGzEPxQ1rR62DNNa-4" value="Lista de funcionários" style="rounded=0;whiteSpace=wrap;html=1;" vertex="1" parent="1">
          <mxGeometry x="208" y="25" width="120" height="60" as="geometry" />
        </mxCell>
        <mxCell id="Sby5KGzEPxQ1rR62DNNa-5" style="edgeStyle=orthogonalEdgeStyle;rounded=0;orthogonalLoop=1;jettySize=auto;html=1;exitX=1;exitY=0.5;exitDx=0;exitDy=0;entryX=0;entryY=0.5;entryDx=0;entryDy=0;" edge="1" parent="1" source="Sby5KGzEPxQ1rR62DNNa-6" target="Sby5KGzEPxQ1rR62DNNa-9">
          <mxGeometry relative="1" as="geometry" />
        </mxCell>
        <mxCell id="Sby5KGzEPxQ1rR62DNNa-6" value="Dados do funcionário: Nome, telefone, email e cargo ." style="rounded=0;whiteSpace=wrap;html=1;" vertex="1" parent="1">
          <mxGeometry x="422" y="215" width="126" height="60" as="geometry" />
        </mxCell>
        <mxCell id="Sby5KGzEPxQ1rR62DNNa-7" value="Sim" style="edgeStyle=orthogonalEdgeStyle;rounded=0;orthogonalLoop=1;jettySize=auto;html=1;exitX=0.5;exitY=0;exitDx=0;exitDy=0;entryX=1;entryY=0.5;entryDx=0;entryDy=0;" edge="1" parent="1" source="Sby5KGzEPxQ1rR62DNNa-9" target="Sby5KGzEPxQ1rR62DNNa-20">
          <mxGeometry relative="1" as="geometry">
            <mxPoint x="658" y="135" as="targetPoint" />
          </mxGeometry>
        </mxCell>
        <mxCell id="Sby5KGzEPxQ1rR62DNNa-8" value="Não" style="edgeStyle=orthogonalEdgeStyle;rounded=0;orthogonalLoop=1;jettySize=auto;html=1;" edge="1" parent="1" source="Sby5KGzEPxQ1rR62DNNa-9" target="Sby5KGzEPxQ1rR62DNNa-18">
          <mxGeometry relative="1" as="geometry">
            <mxPoint x="708" y="295" as="targetPoint" />
            <Array as="points">
              <mxPoint x="598" y="285" />
              <mxPoint x="728" y="285" />
            </Array>
          </mxGeometry>
        </mxCell>
        <mxCell id="Sby5KGzEPxQ1rR62DNNa-9" value="Dados validos?" style="rhombus;whiteSpace=wrap;html=1;" vertex="1" parent="1">
          <mxGeometry x="568" y="205" width="80" height="80" as="geometry" />
        </mxCell>
        <mxCell id="Sby5KGzEPxQ1rR62DNNa-10" style="edgeStyle=orthogonalEdgeStyle;rounded=0;orthogonalLoop=1;jettySize=auto;html=1;exitX=0;exitY=0.5;exitDx=0;exitDy=0;entryX=1;entryY=0.5;entryDx=0;entryDy=0;" edge="1" parent="1" source="Sby5KGzEPxQ1rR62DNNa-11" target="Sby5KGzEPxQ1rR62DNNa-27">
          <mxGeometry relative="1" as="geometry">
            <mxPoint x="120.5" y="225" as="targetPoint" />
          </mxGeometry>
        </mxCell>
        <mxCell id="Sby5KGzEPxQ1rR62DNNa-11" value="Procurar funcionário" style="rounded=0;whiteSpace=wrap;html=1;" vertex="1" parent="1">
          <mxGeometry x="148" y="215" width="110" height="60" as="geometry" />
        </mxCell>
        <mxCell id="Sby5KGzEPxQ1rR62DNNa-12" style="edgeStyle=orthogonalEdgeStyle;rounded=0;orthogonalLoop=1;jettySize=auto;html=1;exitX=1;exitY=0.5;exitDx=0;exitDy=0;entryX=0;entryY=0.5;entryDx=0;entryDy=0;" edge="1" parent="1" source="Sby5KGzEPxQ1rR62DNNa-13" target="Sby5KGzEPxQ1rR62DNNa-6">
          <mxGeometry relative="1" as="geometry" />
        </mxCell>
        <mxCell id="Sby5KGzEPxQ1rR62DNNa-13" value="Cadastrar funcionário" style="rounded=0;whiteSpace=wrap;html=1;" vertex="1" parent="1">
          <mxGeometry x="278" y="215" width="120" height="60" as="geometry" />
        </mxCell>
        <mxCell id="Sby5KGzEPxQ1rR62DNNa-14" value="Não" style="edgeStyle=orthogonalEdgeStyle;rounded=0;orthogonalLoop=1;jettySize=auto;html=1;exitX=0.5;exitY=1;exitDx=0;exitDy=0;entryX=0.5;entryY=0;entryDx=0;entryDy=0;" edge="1" parent="1" source="Sby5KGzEPxQ1rR62DNNa-16" target="Sby5KGzEPxQ1rR62DNNa-22">
          <mxGeometry relative="1" as="geometry" />
        </mxCell>
        <mxCell id="Sby5KGzEPxQ1rR62DNNa-15" value="Sim" style="edgeStyle=orthogonalEdgeStyle;rounded=0;orthogonalLoop=1;jettySize=auto;html=1;exitX=1;exitY=0.5;exitDx=0;exitDy=0;entryX=0;entryY=0.5;entryDx=0;entryDy=0;" edge="1" parent="1" source="Sby5KGzEPxQ1rR62DNNa-16" target="Sby5KGzEPxQ1rR62DNNa-24">
          <mxGeometry relative="1" as="geometry">
            <mxPoint x="302" y="495" as="targetPoint" />
          </mxGeometry>
        </mxCell>
        <mxCell id="Sby5KGzEPxQ1rR62DNNa-16" value="Dados validos?" style="rhombus;whiteSpace=wrap;html=1;" vertex="1" parent="1">
          <mxGeometry x="163" y="495" width="80" height="80" as="geometry" />
        </mxCell>
        <mxCell id="Sby5KGzEPxQ1rR62DNNa-17" style="edgeStyle=orthogonalEdgeStyle;rounded=0;orthogonalLoop=1;jettySize=auto;html=1;exitX=1;exitY=0.5;exitDx=0;exitDy=0;entryX=0.5;entryY=1;entryDx=0;entryDy=0;" edge="1" parent="1" source="Sby5KGzEPxQ1rR62DNNa-18" target="Sby5KGzEPxQ1rR62DNNa-13">
          <mxGeometry relative="1" as="geometry">
            <Array as="points">
              <mxPoint x="808" y="225" />
              <mxPoint x="808" y="295" />
              <mxPoint x="338" y="295" />
            </Array>
          </mxGeometry>
        </mxCell>
        <mxCell id="Sby5KGzEPxQ1rR62DNNa-18" value="Mostrar erro" style="rounded=0;whiteSpace=wrap;html=1;" vertex="1" parent="1">
          <mxGeometry x="668" y="195" width="120" height="60" as="geometry" />
        </mxCell>
        <mxCell id="Sby5KGzEPxQ1rR62DNNa-19" style="edgeStyle=orthogonalEdgeStyle;rounded=0;orthogonalLoop=1;jettySize=auto;html=1;exitX=0;exitY=0.5;exitDx=0;exitDy=0;entryX=0.75;entryY=0;entryDx=0;entryDy=0;" edge="1" parent="1" source="Sby5KGzEPxQ1rR62DNNa-20" target="Sby5KGzEPxQ1rR62DNNa-13">
          <mxGeometry relative="1" as="geometry" />
        </mxCell>
        <mxCell id="Sby5KGzEPxQ1rR62DNNa-20" value="Cadastro bem sucedido&amp;nbsp;" style="rounded=0;whiteSpace=wrap;html=1;" vertex="1" parent="1">
          <mxGeometry x="422" y="135" width="120" height="60" as="geometry" />
        </mxCell>
        <mxCell id="Sby5KGzEPxQ1rR62DNNa-21" style="edgeStyle=orthogonalEdgeStyle;rounded=0;orthogonalLoop=1;jettySize=auto;html=1;exitX=0;exitY=0.25;exitDx=0;exitDy=0;entryX=0;entryY=1;entryDx=0;entryDy=0;" edge="1" parent="1" source="Sby5KGzEPxQ1rR62DNNa-22" target="Sby5KGzEPxQ1rR62DNNa-33">
          <mxGeometry relative="1" as="geometry">
            <Array as="points">
              <mxPoint x="148" y="635" />
              <mxPoint x="148" y="475" />
              <mxPoint x="183" y="475" />
            </Array>
          </mxGeometry>
        </mxCell>
        <mxCell id="Sby5KGzEPxQ1rR62DNNa-22" value="Mostrar erro" style="rounded=0;whiteSpace=wrap;html=1;" vertex="1" parent="1">
          <mxGeometry x="155.5" y="620" width="95" height="60" as="geometry" />
        </mxCell>
        <mxCell id="Sby5KGzEPxQ1rR62DNNa-23" style="edgeStyle=orthogonalEdgeStyle;rounded=0;orthogonalLoop=1;jettySize=auto;html=1;exitX=0.25;exitY=0;exitDx=0;exitDy=0;entryX=1;entryY=0.25;entryDx=0;entryDy=0;" edge="1" parent="1" source="Sby5KGzEPxQ1rR62DNNa-24" target="Sby5KGzEPxQ1rR62DNNa-43">
          <mxGeometry relative="1" as="geometry">
            <Array as="points">
              <mxPoint x="332" y="375" />
              <mxPoint x="302" y="375" />
              <mxPoint x="302" y="295" />
              <mxPoint x="231" y="295" />
              <mxPoint x="231" y="325" />
            </Array>
          </mxGeometry>
        </mxCell>
        <mxCell id="Sby5KGzEPxQ1rR62DNNa-24" value="Atualizado com sucesso" style="rounded=0;whiteSpace=wrap;html=1;" vertex="1" parent="1">
          <mxGeometry x="302" y="405" width="120" height="60" as="geometry" />
        </mxCell>
        <mxCell id="Sby5KGzEPxQ1rR62DNNa-25" value="Não" style="edgeStyle=orthogonalEdgeStyle;rounded=0;orthogonalLoop=1;jettySize=auto;html=1;entryX=0.25;entryY=0;entryDx=0;entryDy=0;" edge="1" parent="1" source="Sby5KGzEPxQ1rR62DNNa-27" target="Sby5KGzEPxQ1rR62DNNa-11">
          <mxGeometry relative="1" as="geometry">
            <Array as="points">
              <mxPoint x="69" y="195" />
              <mxPoint x="176" y="195" />
            </Array>
          </mxGeometry>
        </mxCell>
        <mxCell id="Sby5KGzEPxQ1rR62DNNa-26" value="Sim" style="edgeStyle=orthogonalEdgeStyle;rounded=0;orthogonalLoop=1;jettySize=auto;html=1;exitX=0.5;exitY=1;exitDx=0;exitDy=0;entryX=0.5;entryY=0;entryDx=0;entryDy=0;" edge="1" parent="1" source="Sby5KGzEPxQ1rR62DNNa-27" target="Sby5KGzEPxQ1rR62DNNa-43">
          <mxGeometry relative="1" as="geometry" />
        </mxCell>
        <mxCell id="Sby5KGzEPxQ1rR62DNNa-27" value="Encontrou funcionário?" style="rhombus;whiteSpace=wrap;html=1;" vertex="1" parent="1">
          <mxGeometry x="28" y="205" width="80" height="80" as="geometry" />
        </mxCell>
        <mxCell id="Sby5KGzEPxQ1rR62DNNa-28" value="Não" style="edgeStyle=orthogonalEdgeStyle;rounded=0;orthogonalLoop=1;jettySize=auto;html=1;exitX=1;exitY=0.5;exitDx=0;exitDy=0;entryX=0;entryY=0.5;entryDx=0;entryDy=0;" edge="1" parent="1" source="Sby5KGzEPxQ1rR62DNNa-30" target="Sby5KGzEPxQ1rR62DNNa-33">
          <mxGeometry relative="1" as="geometry" />
        </mxCell>
        <mxCell id="Sby5KGzEPxQ1rR62DNNa-29" value="Sim" style="edgeStyle=orthogonalEdgeStyle;rounded=0;orthogonalLoop=1;jettySize=auto;html=1;" edge="1" parent="1" source="Sby5KGzEPxQ1rR62DNNa-30" target="Sby5KGzEPxQ1rR62DNNa-36">
          <mxGeometry relative="1" as="geometry" />
        </mxCell>
        <mxCell id="Sby5KGzEPxQ1rR62DNNa-30" value="Apagar funcionário?" style="rhombus;whiteSpace=wrap;html=1;" vertex="1" parent="1">
          <mxGeometry x="28" y="395" width="80" height="80" as="geometry" />
        </mxCell>
        <mxCell id="Sby5KGzEPxQ1rR62DNNa-31" value="Não" style="edgeStyle=orthogonalEdgeStyle;rounded=0;orthogonalLoop=1;jettySize=auto;html=1;entryX=1;entryY=0.75;entryDx=0;entryDy=0;" edge="1" parent="1" source="Sby5KGzEPxQ1rR62DNNa-33" target="Sby5KGzEPxQ1rR62DNNa-43">
          <mxGeometry relative="1" as="geometry">
            <Array as="points">
              <mxPoint x="203" y="345" />
            </Array>
          </mxGeometry>
        </mxCell>
        <mxCell id="Sby5KGzEPxQ1rR62DNNa-32" value="Sim" style="edgeStyle=orthogonalEdgeStyle;rounded=0;orthogonalLoop=1;jettySize=auto;html=1;exitX=0.5;exitY=1;exitDx=0;exitDy=0;entryX=0.5;entryY=0;entryDx=0;entryDy=0;" edge="1" parent="1" source="Sby5KGzEPxQ1rR62DNNa-33" target="Sby5KGzEPxQ1rR62DNNa-16">
          <mxGeometry relative="1" as="geometry" />
        </mxCell>
        <mxCell id="Sby5KGzEPxQ1rR62DNNa-33" value="Atualizar funcionário?" style="rhombus;whiteSpace=wrap;html=1;" vertex="1" parent="1">
          <mxGeometry x="163" y="395" width="80" height="80" as="geometry" />
        </mxCell>
        <mxCell id="Sby5KGzEPxQ1rR62DNNa-34" value="Sim" style="edgeStyle=orthogonalEdgeStyle;rounded=0;orthogonalLoop=1;jettySize=auto;html=1;exitX=0.5;exitY=1;exitDx=0;exitDy=0;entryX=0.5;entryY=0;entryDx=0;entryDy=0;" edge="1" parent="1" source="Sby5KGzEPxQ1rR62DNNa-36" target="Sby5KGzEPxQ1rR62DNNa-37">
          <mxGeometry relative="1" as="geometry" />
        </mxCell>
        <mxCell id="Sby5KGzEPxQ1rR62DNNa-35" value="Não" style="edgeStyle=orthogonalEdgeStyle;rounded=0;orthogonalLoop=1;jettySize=auto;html=1;entryX=0;entryY=0.5;entryDx=0;entryDy=0;" edge="1" parent="1" source="Sby5KGzEPxQ1rR62DNNa-36" target="Sby5KGzEPxQ1rR62DNNa-43">
          <mxGeometry relative="1" as="geometry">
            <mxPoint x="28" y="165" as="targetPoint" />
            <Array as="points">
              <mxPoint x="28" y="335" />
            </Array>
          </mxGeometry>
        </mxCell>
        <mxCell id="Sby5KGzEPxQ1rR62DNNa-36" value="Confirmado?" style="rhombus;whiteSpace=wrap;html=1;" vertex="1" parent="1">
          <mxGeometry x="28" y="530" width="80" height="80" as="geometry" />
        </mxCell>
        <mxCell id="Sby5KGzEPxQ1rR62DNNa-37" value="Apagado com sucesso" style="rounded=0;whiteSpace=wrap;html=1;" vertex="1" parent="1">
          <mxGeometry x="18" y="645" width="100" height="50" as="geometry" />
        </mxCell>
        <mxCell id="Sby5KGzEPxQ1rR62DNNa-38" style="edgeStyle=orthogonalEdgeStyle;rounded=0;orthogonalLoop=1;jettySize=auto;html=1;exitX=0;exitY=0;exitDx=0;exitDy=0;entryX=0.609;entryY=0.033;entryDx=0;entryDy=0;entryPerimeter=0;" edge="1" parent="1" source="Sby5KGzEPxQ1rR62DNNa-37" target="Sby5KGzEPxQ1rR62DNNa-11">
          <mxGeometry relative="1" as="geometry">
            <mxPoint x="215" y="195" as="targetPoint" />
            <Array as="points">
              <mxPoint x="18" y="555" />
              <mxPoint x="18" y="165" />
              <mxPoint x="215" y="165" />
            </Array>
          </mxGeometry>
        </mxCell>
        <mxCell id="Sby5KGzEPxQ1rR62DNNa-39" value="Não" style="edgeStyle=orthogonalEdgeStyle;rounded=0;orthogonalLoop=1;jettySize=auto;html=1;exitX=1;exitY=1;exitDx=0;exitDy=0;entryX=0.25;entryY=0;entryDx=0;entryDy=0;" edge="1" parent="1" source="Sby5KGzEPxQ1rR62DNNa-40" target="Sby5KGzEPxQ1rR62DNNa-13">
          <mxGeometry relative="1" as="geometry">
            <Array as="points">
              <mxPoint x="288" y="195" />
              <mxPoint x="308" y="195" />
            </Array>
          </mxGeometry>
        </mxCell>
        <mxCell id="Sby5KGzEPxQ1rR62DNNa-40" value="Funcionário&lt;div&gt;cadastrado?&lt;/div&gt;" style="rhombus;whiteSpace=wrap;html=1;" vertex="1" parent="1">
          <mxGeometry x="228" y="105" width="80" height="80" as="geometry" />
        </mxCell>
        <mxCell id="Sby5KGzEPxQ1rR62DNNa-41" value="Sim" style="edgeStyle=orthogonalEdgeStyle;rounded=0;orthogonalLoop=1;jettySize=auto;html=1;exitX=0;exitY=1;exitDx=0;exitDy=0;entryX=0.75;entryY=0;entryDx=0;entryDy=0;" edge="1" parent="1" source="Sby5KGzEPxQ1rR62DNNa-40" target="Sby5KGzEPxQ1rR62DNNa-11">
          <mxGeometry relative="1" as="geometry">
            <Array as="points">
              <mxPoint x="248" y="195" />
              <mxPoint x="231" y="195" />
            </Array>
          </mxGeometry>
        </mxCell>
        <mxCell id="Sby5KGzEPxQ1rR62DNNa-42" style="edgeStyle=orthogonalEdgeStyle;rounded=0;orthogonalLoop=1;jettySize=auto;html=1;exitX=0.5;exitY=1;exitDx=0;exitDy=0;entryX=0.5;entryY=0;entryDx=0;entryDy=0;" edge="1" parent="1" source="Sby5KGzEPxQ1rR62DNNa-43" target="Sby5KGzEPxQ1rR62DNNa-30">
          <mxGeometry relative="1" as="geometry" />
        </mxCell>
        <mxCell id="Sby5KGzEPxQ1rR62DNNa-43" value="Funcionário" style="rounded=0;whiteSpace=wrap;html=1;" vertex="1" parent="1">
          <mxGeometry x="33.629999999999995" y="315" width="68.75" height="40" as="geometry" />
        </mxCell>
      </root>
    </mxGraphModel>
  </diagram>
</mxfile>
